<?xml version="1.0" encoding="UTF-8" standalone="no"?>
<svg
   xmlns:dc="http://purl.org/dc/elements/1.1/"
   xmlns:cc="http://creativecommons.org/ns#"
   xmlns:rdf="http://www.w3.org/1999/02/22-rdf-syntax-ns#"
   xmlns:svg="http://www.w3.org/2000/svg"
   xmlns="http://www.w3.org/2000/svg"
   xmlns:sodipodi="http://sodipodi.sourceforge.net/DTD/sodipodi-0.dtd"
   xmlns:inkscape="http://www.inkscape.org/namespaces/inkscape"
   width="301.95"
   height="61.936"
   viewBox="0 0 301.95 61.936"
   version="1.1"
   id="svg1105"
   sodipodi:docname="dcppc-dark.svg"
   inkscape:version="0.92.3 (2405546, 2018-03-11)">
  <metadata
     id="metadata1111">
    <rdf:RDF>
      <cc:Work
         rdf:about="">
        <dc:format>image/svg+xml</dc:format>
        <dc:type
           rdf:resource="http://purl.org/dc/dcmitype/StillImage" />
        <dc:title>dcfc-logo</dc:title>
      </cc:Work>
    </rdf:RDF>
  </metadata>
  <defs
     id="defs1109" />
  <sodipodi:namedview
     pagecolor="#ffffff"
     bordercolor="#666666"
     borderopacity="1"
     objecttolerance="10"
     gridtolerance="10"
     guidetolerance="10"
     inkscape:pageopacity="0"
     inkscape:pageshadow="2"
     inkscape:window-width="2517"
     inkscape:window-height="1408"
     id="namedview1107"
     showgrid="false"
     inkscape:zoom="4.4400543"
     inkscape:cx="177.2886"
     inkscape:cy="30.668106"
     inkscape:window-x="43"
     inkscape:window-y="0"
     inkscape:window-maximized="1"
     inkscape:current-layer="svg1105" />
  <title
     id="title999">dcfc-logo</title>
  <g
     id="g1025">
    <g
       id="g1005">
      <rect
         style="fill:#ffffff"
         x="0"
         id="rect1001"
         height="59.604"
         width="58.278999"
         y="1.002" />
      <path
         style="fill:#e6e6e6"
         inkscape:connector-curvature="0"
         id="path1003"
         d="M 54.124,5.157 V 56.451 H 4.155 V 5.157 H 54.124 M 58.279,1 H 0 v 59.6 h 58.279 z" />
    </g>
    <g
       id="g1023">
      <rect
         style="fill:#f7931e"
         id="rect1007"
         height="18.392"
         width="7.7329998"
         y="11.576"
         x="10.016" />
      <rect
         style="fill:#2aa0ea"
         id="rect1009"
         height="18.392"
         width="7.7329998"
         y="11.576"
         x="19.804001" />
      <rect
         style="fill:#f74307"
         id="rect1011"
         height="18.392"
         width="7.7329998"
         y="11.576"
         x="29.591999" />
      <rect
         style="fill:#045b91"
         id="rect1013"
         height="18.392"
         width="7.7329998"
         y="11.576"
         x="39.380001" />
      <rect
         style="fill:#f74307"
         id="rect1015"
         height="18.084"
         width="7.7329998"
         y="31.948"
         x="10.016" />
      <rect
         style="fill:#045b91"
         id="rect1017"
         height="18.084"
         width="7.7329998"
         y="31.948"
         x="19.804001" />
      <rect
         style="fill:#f7931e"
         id="rect1019"
         height="18.084"
         width="7.7329998"
         y="31.948"
         x="29.591999" />
      <rect
         style="fill:#2aa0ea"
         id="rect1021"
         height="18.084"
         width="7.7329998"
         y="31.948"
         x="39.380001" />
    </g>
  </g>
  <path
     d="m 71.261,54.358 h 2.692 a 3.722,3.722 0 0 1 1.573,0.315 3.451,3.451 0 0 1 1.149,0.839 3.634,3.634 0 0 1 0.709,1.19 3.989,3.989 0 0 1 0.244,1.372 3.881,3.881 0 0 1 -0.254,1.4 3.533,3.533 0 0 1 -0.73,1.169 3.493,3.493 0 0 1 -1.154,0.808 3.736,3.736 0 0 1 -1.527,0.3 h -2.7 z m 2.66,6.138 a 2.6,2.6 0 0 0 0.844,-0.139 1.939,1.939 0 0 0 0.72,-0.435 2.16,2.16 0 0 0 0.5,-0.74 2.731,2.731 0 0 0 0.186,-1.056 3.194,3.194 0 0 0 -0.171,-1.092 2.234,2.234 0 0 0 -0.471,-0.787 1.872,1.872 0 0 0 -0.714,-0.471 2.538,2.538 0 0 0 -0.9,-0.155 h -1.19 V 60.5 Z"
     id="path1027"
     inkscape:connector-curvature="0"
     style="fill:#333333;fill-opacity:1" />
  <path
     d="m 82.773,60.621 h -3.458 l -0.476,1.128 h -1.584 l 3.489,-7.391 h 0.807 l 3.313,7.391 h -1.625 z m -3.034,-1.087 h 2.6 l -1.284,-3.1 z"
     id="path1029"
     inkscape:connector-curvature="0"
     style="fill:#333333;fill-opacity:1" />
  <path
     d="m 86.044,61.749 v -6.087 h -2.3 v -1.3 h 6.045 v 1.3 h -2.3 v 6.087 z"
     id="path1031"
     inkscape:connector-curvature="0"
     style="fill:#333333;fill-opacity:1" />
  <path
     d="m 94.171,60.621 h -3.458 l -0.476,1.128 h -1.584 l 3.488,-7.391 h 0.808 l 3.313,7.391 h -1.626 z m -3.034,-1.087 h 2.6 l -1.284,-3.1 z"
     id="path1033"
     inkscape:connector-curvature="0"
     style="fill:#333333;fill-opacity:1" />
  <path
     d="m 103.083,54.151 a 4.086,4.086 0 0 1 1.346,0.222 3.509,3.509 0 0 1 1.139,0.647 3.47,3.47 0 0 1 0.818,1.035 3.848,3.848 0 0 1 0.4,1.388 h -1.408 a 2.624,2.624 0 0 0 -0.3,-0.849 2.185,2.185 0 0 0 -0.518,-0.622 2.214,2.214 0 0 0 -0.683,-0.377 2.436,2.436 0 0 0 -0.792,-0.13 2.468,2.468 0 0 0 -0.978,0.187 2.217,2.217 0 0 0 -0.756,0.517 2.28,2.28 0 0 0 -0.487,0.792 2.911,2.911 0 0 0 -0.17,1.02 3.253,3.253 0 0 0 0.165,1.061 2.507,2.507 0 0 0 0.476,0.839 2.149,2.149 0 0 0 0.751,0.553 2.381,2.381 0 0 0 0.988,0.2 2.19,2.19 0 0 0 0.772,-0.14 2.416,2.416 0 0 0 0.694,-0.4 2.5,2.5 0 0 0 0.538,-0.621 2.362,2.362 0 0 0 0.3,-0.818 h 1.356 a 3.4,3.4 0 0 1 -0.4,1.3 3.882,3.882 0 0 1 -0.828,1.041 3.809,3.809 0 0 1 -1.134,0.693 3.527,3.527 0 0 1 -1.305,0.249 3.945,3.945 0 0 1 -1.578,-0.306 3.655,3.655 0 0 1 -1.217,-0.838 3.715,3.715 0 0 1 -0.781,-1.258 4.375,4.375 0 0 1 -0.274,-1.563 3.933,3.933 0 0 1 0.279,-1.481 3.656,3.656 0 0 1 0.787,-1.211 3.77,3.77 0 0 1 1.216,-0.823 3.919,3.919 0 0 1 1.584,-0.307 z"
     id="path1035"
     inkscape:connector-curvature="0"
     style="fill:#333333;fill-opacity:1" />
  <path
     d="m 111.086,61.936 a 3.907,3.907 0 0 1 -1.537,-0.3 3.513,3.513 0 0 1 -1.2,-0.823 3.726,3.726 0 0 1 -0.782,-1.263 4.511,4.511 0 0 1 -0.279,-1.615 3.847,3.847 0 0 1 0.3,-1.558 3.6,3.6 0 0 1 2.05,-1.961 4.085,4.085 0 0 1 1.485,-0.269 3.949,3.949 0 0 1 1.5,0.274 3.386,3.386 0 0 1 1.936,1.972 4.532,4.532 0 0 1 -0.01,3.131 3.877,3.877 0 0 1 -0.787,1.264 3.647,3.647 0 0 1 -2.676,1.144 z m -0.01,-1.3 a 2.111,2.111 0 0 0 0.921,-0.2 2.3,2.3 0 0 0 0.735,-0.548 2.571,2.571 0 0 0 0.486,-0.813 2.777,2.777 0 0 0 0.177,-0.994 3.226,3.226 0 0 0 -0.166,-1.051 2.452,2.452 0 0 0 -0.471,-0.828 2.109,2.109 0 0 0 -0.74,-0.538 2.387,2.387 0 0 0 -0.973,-0.192 2.157,2.157 0 0 0 -0.927,0.2 2.239,2.239 0 0 0 -0.725,0.538 2.42,2.42 0 0 0 -0.471,0.813 3.033,3.033 0 0 0 -0.165,1.009 3.148,3.148 0 0 0 0.165,1.036 2.576,2.576 0 0 0 0.466,0.828 2.1,2.1 0 0 0 0.73,0.548 2.261,2.261 0 0 0 0.958,0.187 z"
     id="path1037"
     inkscape:connector-curvature="0"
     style="fill:#333333;fill-opacity:1" />
  <path
     d="m 122,61.749 v -5.932 l -2.1,5.932 h -0.828 l -2.092,-5.932 v 5.932 h -1.3 v -7.391 h 2.22 l 1.677,5.145 1.77,-5.145 h 2.122 v 7.391 z"
     id="path1039"
     inkscape:connector-curvature="0"
     style="fill:#333333;fill-opacity:1" />
  <path
     d="m 130.869,61.749 v -5.932 l -2.1,5.932 h -0.829 l -2.091,-5.932 v 5.932 h -1.3 v -7.391 h 2.226 l 1.677,5.145 1.77,-5.145 h 2.122 v 7.391 z"
     id="path1041"
     inkscape:connector-curvature="0"
     style="fill:#333333;fill-opacity:1" />
  <path
     d="m 136.946,61.936 a 3.912,3.912 0 0 1 -1.538,-0.3 3.509,3.509 0 0 1 -1.2,-0.823 3.726,3.726 0 0 1 -0.782,-1.263 4.511,4.511 0 0 1 -0.279,-1.615 3.847,3.847 0 0 1 0.305,-1.558 3.6,3.6 0 0 1 2.05,-1.961 4.081,4.081 0 0 1 1.485,-0.269 3.952,3.952 0 0 1 1.5,0.274 3.386,3.386 0 0 1 1.936,1.972 4.532,4.532 0 0 1 -0.01,3.131 3.877,3.877 0 0 1 -0.787,1.264 3.651,3.651 0 0 1 -2.676,1.144 z m -0.011,-1.3 a 2.112,2.112 0 0 0 0.922,-0.2 2.3,2.3 0 0 0 0.735,-0.548 2.571,2.571 0 0 0 0.486,-0.813 2.776,2.776 0 0 0 0.176,-0.994 3.226,3.226 0 0 0 -0.165,-1.051 2.452,2.452 0 0 0 -0.471,-0.828 2.113,2.113 0 0 0 -0.741,-0.538 2.38,2.38 0 0 0 -0.973,-0.192 2.153,2.153 0 0 0 -0.926,0.2 2.229,2.229 0 0 0 -0.725,0.538 2.4,2.4 0 0 0 -0.471,0.813 3.033,3.033 0 0 0 -0.165,1.009 3.148,3.148 0 0 0 0.165,1.036 2.557,2.557 0 0 0 0.466,0.828 2.089,2.089 0 0 0 0.73,0.548 2.256,2.256 0 0 0 0.957,0.187 z"
     id="path1043"
     inkscape:connector-curvature="0"
     style="fill:#333333;fill-opacity:1" />
  <path
     d="m 146.7,61.749 -3.883,-5.569 v 5.569 h -1.283 v -7.391 h 1.884 l 3.219,4.72 v -4.72 h 1.315 v 7.391 z"
     id="path1045"
     inkscape:connector-curvature="0"
     style="fill:#333333;fill-opacity:1" />
  <path
     d="m 153.675,56.563 a 1.173,1.173 0 0 0 -0.2,-0.591 1.3,1.3 0 0 0 -0.419,-0.377 1.9,1.9 0 0 0 -0.549,-0.2 2.866,2.866 0 0 0 -0.59,-0.062 4.834,4.834 0 0 0 -0.518,0.031 2,2 0 0 0 -0.543,0.134 1.065,1.065 0 0 0 -0.425,0.311 0.834,0.834 0 0 0 -0.17,0.549 0.689,0.689 0 0 0 0.139,0.45 1.024,1.024 0 0 0 0.332,0.269 1.649,1.649 0 0 0 0.393,0.145 c 0.134,0.031 0.24,0.054 0.316,0.067 q 0.683,0.114 1.294,0.2 a 6.087,6.087 0 0 1 1.045,0.233 2.289,2.289 0 0 1 1.015,0.616 1.754,1.754 0 0 1 0.373,1.216 2.28,2.28 0 0 1 -0.268,1.146 2.072,2.072 0 0 1 -0.7,0.735 2.924,2.924 0 0 1 -0.994,0.388 5.686,5.686 0 0 1 -1.139,0.115 4.66,4.66 0 0 1 -1.17,-0.151 3.38,3.38 0 0 1 -1.05,-0.466 2.818,2.818 0 0 1 -0.8,-0.812 2.715,2.715 0 0 1 -0.409,-1.191 h 1.314 a 1.484,1.484 0 0 0 0.295,0.689 1.769,1.769 0 0 0 0.528,0.44 2.273,2.273 0 0 0 0.673,0.233 4.03,4.03 0 0 0 0.73,0.067 c 0.145,0 0.317,-0.011 0.518,-0.031 a 2.081,2.081 0 0 0 0.569,-0.14 1.179,1.179 0 0 0 0.455,-0.321 0.819,0.819 0 0 0 0.187,-0.564 0.969,0.969 0 0 0 -0.067,-0.388 0.68,0.68 0 0 0 -0.2,-0.254 0.99,0.99 0 0 0 -0.321,-0.165 3.977,3.977 0 0 0 -0.44,-0.114 q -0.279,-0.063 -0.626,-0.109 c -0.232,-0.031 -0.471,-0.069 -0.72,-0.114 -0.249,-0.045 -0.5,-0.1 -0.74,-0.165 a 4.122,4.122 0 0 1 -0.678,-0.244 2.159,2.159 0 0 1 -0.8,-0.631 1.7,1.7 0 0 1 -0.316,-1.077 2.153,2.153 0 0 1 0.248,-1.071 1.979,1.979 0 0 1 0.658,-0.7 2.857,2.857 0 0 1 0.942,-0.383 5.049,5.049 0 0 1 1.113,-0.119 4.215,4.215 0 0 1 1.113,0.145 2.952,2.952 0 0 1 0.947,0.439 2.255,2.255 0 0 1 0.667,0.751 2.426,2.426 0 0 1 0.285,1.077 z"
     id="path1047"
     inkscape:connector-curvature="0"
     style="fill:#333333;fill-opacity:1" />
  <path
     d="m 158.6,61.749 v -7.391 h 4.255 a 2.152,2.152 0 0 1 1.776,0.833 2.489,2.489 0 0 1 0.419,0.828 3.247,3.247 0 0 1 0.135,0.916 2.29,2.29 0 0 1 -0.192,0.947 2.247,2.247 0 0 1 -0.518,0.736 2.38,2.38 0 0 1 -0.76,0.476 2.469,2.469 0 0 1 -0.911,0.171 h -2.723 v 2.484 z m 1.46,-6.149 v 2.433 h 2.578 a 1.048,1.048 0 0 0 0.781,-0.311 1.115,1.115 0 0 0 0.306,-0.818 1.474,1.474 0 0 0 -0.285,-0.947 1,1 0 0 0 -0.833,-0.357 z"
     id="path1049"
     inkscape:connector-curvature="0"
     style="fill:#333333;fill-opacity:1" />
  <path
     d="m 166,61.749 v -7.391 h 1.46 v 7.391 z"
     id="path1051"
     inkscape:connector-curvature="0"
     style="fill:#333333;fill-opacity:1" />
  <path
     d="m 168.654,61.749 v -7.391 h 1.46 v 6.087 h 4.524 v 1.3 z"
     id="path1053"
     inkscape:connector-curvature="0"
     style="fill:#333333;fill-opacity:1" />
  <path
     d="m 178.531,61.936 a 3.912,3.912 0 0 1 -1.538,-0.3 3.523,3.523 0 0 1 -1.2,-0.823 3.74,3.74 0 0 1 -0.781,-1.263 4.489,4.489 0 0 1 -0.28,-1.615 3.847,3.847 0 0 1 0.306,-1.558 3.625,3.625 0 0 1 0.828,-1.2 3.662,3.662 0 0 1 1.221,-0.766 4.086,4.086 0 0 1 1.486,-0.269 3.952,3.952 0 0 1 1.5,0.274 3.386,3.386 0 0 1 1.927,1.984 4.524,4.524 0 0 1 -0.011,3.131 3.875,3.875 0 0 1 -0.786,1.264 3.651,3.651 0 0 1 -2.676,1.144 z m -0.011,-1.3 a 2.119,2.119 0 0 0 0.922,-0.2 2.308,2.308 0 0 0 0.735,-0.548 2.571,2.571 0 0 0 0.486,-0.813 2.8,2.8 0 0 0 0.176,-0.994 3.226,3.226 0 0 0 -0.165,-1.051 2.452,2.452 0 0 0 -0.471,-0.828 2.113,2.113 0 0 0 -0.741,-0.538 2.383,2.383 0 0 0 -0.973,-0.192 2.153,2.153 0 0 0 -0.926,0.2 2.229,2.229 0 0 0 -0.725,0.538 2.387,2.387 0 0 0 -0.471,0.813 3.034,3.034 0 0 0 -0.166,1.009 3.148,3.148 0 0 0 0.166,1.036 2.557,2.557 0 0 0 0.466,0.828 2.089,2.089 0 0 0 0.73,0.548 2.256,2.256 0 0 0 0.957,0.187 z"
     id="path1055"
     inkscape:connector-curvature="0"
     style="fill:#333333;fill-opacity:1" />
  <path
     d="m 184.649,61.749 v -6.087 h -2.3 v -1.3 h 6.051 v 1.3 h -2.3 v 6.087 z"
     id="path1057"
     inkscape:connector-curvature="0"
     style="fill:#333333;fill-opacity:1" />
  <path
     d="m 191.8,61.749 v -7.391 h 4.255 a 2.148,2.148 0 0 1 1.775,0.833 2.473,2.473 0 0 1 0.42,0.828 3.281,3.281 0 0 1 0.134,0.916 2.306,2.306 0 0 1 -0.191,0.947 2.262,2.262 0 0 1 -0.518,0.736 2.373,2.373 0 0 1 -0.761,0.476 2.469,2.469 0 0 1 -0.911,0.171 h -2.722 v 2.484 z m 1.46,-6.149 v 2.433 h 2.578 a 1.049,1.049 0 0 0 0.781,-0.311 1.115,1.115 0 0 0 0.3,-0.818 1.474,1.474 0 0 0 -0.284,-0.947 1,1 0 0 0 -0.834,-0.357 z"
     id="path1059"
     inkscape:connector-curvature="0"
     style="fill:#333333;fill-opacity:1" />
  <path
     d="M 203.945,61.749 V 58.83 h -3.323 v 2.919 h -1.46 v -7.391 h 1.46 v 3.167 h 3.323 v -3.167 h 1.439 v 7.391 z"
     id="path1061"
     inkscape:connector-curvature="0"
     style="fill:#333333;fill-opacity:1" />
  <path
     d="m 211.482,60.621 h -3.458 l -0.476,1.128 h -1.584 l 3.489,-7.391 h 0.807 l 3.313,7.391 h -1.625 z m -3.034,-1.087 h 2.6 l -1.284,-3.1 z"
     id="path1063"
     inkscape:connector-curvature="0"
     style="fill:#333333;fill-opacity:1" />
  <path
     d="m 218.542,56.563 a 1.173,1.173 0 0 0 -0.2,-0.591 1.3,1.3 0 0 0 -0.419,-0.377 1.9,1.9 0 0 0 -0.549,-0.2 2.866,2.866 0 0 0 -0.59,-0.062 4.849,4.849 0 0 0 -0.518,0.031 2,2 0 0 0 -0.543,0.134 1.065,1.065 0 0 0 -0.425,0.311 0.84,0.84 0 0 0 -0.17,0.549 0.684,0.684 0 0 0 0.14,0.45 1.02,1.02 0 0 0 0.331,0.269 1.649,1.649 0 0 0 0.393,0.145 c 0.135,0.031 0.24,0.054 0.316,0.067 q 0.682,0.114 1.294,0.2 a 6.1,6.1 0 0 1 1.046,0.233 2.291,2.291 0 0 1 1.014,0.616 1.749,1.749 0 0 1 0.373,1.216 2.27,2.27 0 0 1 -0.264,1.144 2.072,2.072 0 0 1 -0.7,0.735 2.924,2.924 0 0 1 -0.994,0.388 5.686,5.686 0 0 1 -1.139,0.115 4.647,4.647 0 0 1 -1.169,-0.151 3.386,3.386 0 0 1 -1.051,-0.466 2.831,2.831 0 0 1 -0.8,-0.812 2.715,2.715 0 0 1 -0.409,-1.191 h 1.314 a 1.474,1.474 0 0 0 0.3,0.689 1.744,1.744 0 0 0 0.528,0.44 2.256,2.256 0 0 0 0.672,0.233 4.038,4.038 0 0 0 0.73,0.067 c 0.145,0 0.317,-0.011 0.518,-0.031 a 2.072,2.072 0 0 0 0.569,-0.14 1.183,1.183 0 0 0 0.456,-0.321 0.823,0.823 0 0 0 0.186,-0.564 0.952,0.952 0 0 0 -0.067,-0.388 0.68,0.68 0 0 0 -0.2,-0.254 0.99,0.99 0 0 0 -0.321,-0.165 3.977,3.977 0 0 0 -0.44,-0.114 q -0.279,-0.063 -0.626,-0.109 -0.347,-0.046 -0.72,-0.114 -0.372,-0.068 -0.74,-0.165 a 4.122,4.122 0 0 1 -0.678,-0.244 2.167,2.167 0 0 1 -0.8,-0.631 1.7,1.7 0 0 1 -0.316,-1.077 2.142,2.142 0 0 1 0.249,-1.071 1.968,1.968 0 0 1 0.657,-0.7 2.857,2.857 0 0 1 0.942,-0.383 5.049,5.049 0 0 1 1.113,-0.119 4.215,4.215 0 0 1 1.113,0.145 2.952,2.952 0 0 1 0.947,0.439 2.257,2.257 0 0 1 0.668,0.751 2.426,2.426 0 0 1 0.284,1.077 z"
     id="path1065"
     inkscape:connector-curvature="0"
     style="fill:#333333;fill-opacity:1" />
  <path
     d="m 220.788,61.749 v -7.391 h 5.812 v 1.231 h -4.348 v 1.771 h 3.572 v 1.2 h -3.572 v 1.956 h 4.359 v 1.232 z"
     id="path1067"
     inkscape:connector-curvature="0"
     style="fill:#333333;fill-opacity:1" />
  <path
     d="m 233.791,54.151 a 4.1,4.1 0 0 1 1.346,0.222 3.515,3.515 0 0 1 1.138,0.647 3.454,3.454 0 0 1 0.818,1.035 3.848,3.848 0 0 1 0.4,1.388 h -1.408 a 2.624,2.624 0 0 0 -0.295,-0.849 2.149,2.149 0 0 0 -1.2,-1 2.436,2.436 0 0 0 -0.792,-0.13 2.468,2.468 0 0 0 -0.978,0.187 2.217,2.217 0 0 0 -0.756,0.517 2.28,2.28 0 0 0 -0.487,0.792 2.911,2.911 0 0 0 -0.17,1.02 3.253,3.253 0 0 0 0.165,1.061 2.525,2.525 0 0 0 0.476,0.839 2.149,2.149 0 0 0 0.751,0.553 2.383,2.383 0 0 0 0.989,0.2 2.189,2.189 0 0 0 0.771,-0.14 2.416,2.416 0 0 0 0.694,-0.4 2.5,2.5 0 0 0 0.538,-0.621 2.362,2.362 0 0 0 0.3,-0.818 h 1.356 a 3.4,3.4 0 0 1 -0.4,1.3 3.882,3.882 0 0 1 -0.828,1.041 3.809,3.809 0 0 1 -1.134,0.693 3.526,3.526 0 0 1 -1.3,0.249 3.946,3.946 0 0 1 -1.579,-0.306 3.64,3.64 0 0 1 -1.206,-0.839 3.7,3.7 0 0 1 -0.782,-1.258 4.375,4.375 0 0 1 -0.274,-1.563 3.933,3.933 0 0 1 0.279,-1.481 3.672,3.672 0 0 1 0.787,-1.211 3.77,3.77 0 0 1 1.216,-0.823 3.921,3.921 0 0 1 1.565,-0.305 z"
     id="path1069"
     inkscape:connector-curvature="0"
     style="fill:#333333;fill-opacity:1" />
  <path
     d="m 241.793,61.936 a 3.907,3.907 0 0 1 -1.537,-0.3 3.513,3.513 0 0 1 -1.2,-0.823 3.726,3.726 0 0 1 -0.782,-1.263 4.511,4.511 0 0 1 -0.279,-1.615 3.847,3.847 0 0 1 0.305,-1.558 3.6,3.6 0 0 1 2.05,-1.961 4.085,4.085 0 0 1 1.485,-0.269 3.949,3.949 0 0 1 1.5,0.274 3.386,3.386 0 0 1 1.936,1.972 4.532,4.532 0 0 1 -0.01,3.131 3.877,3.877 0 0 1 -0.787,1.264 3.647,3.647 0 0 1 -2.676,1.144 z m -0.01,-1.3 a 2.111,2.111 0 0 0 0.921,-0.2 2.3,2.3 0 0 0 0.735,-0.548 2.592,2.592 0 0 0 0.487,-0.813 2.8,2.8 0 0 0 0.176,-0.994 3.226,3.226 0 0 0 -0.166,-1.051 2.452,2.452 0 0 0 -0.471,-0.828 2.109,2.109 0 0 0 -0.74,-0.538 2.387,2.387 0 0 0 -0.973,-0.192 2.157,2.157 0 0 0 -0.927,0.2 2.239,2.239 0 0 0 -0.725,0.538 2.42,2.42 0 0 0 -0.471,0.813 3.033,3.033 0 0 0 -0.165,1.009 3.148,3.148 0 0 0 0.165,1.036 2.576,2.576 0 0 0 0.466,0.828 2.1,2.1 0 0 0 0.73,0.548 2.261,2.261 0 0 0 0.958,0.187 z"
     id="path1071"
     inkscape:connector-curvature="0"
     style="fill:#333333;fill-opacity:1" />
  <path
     d="m 251.545,61.749 -3.882,-5.569 v 5.569 h -1.284 v -7.391 h 1.884 l 3.22,4.72 v -4.72 h 1.317 v 7.391 z"
     id="path1073"
     inkscape:connector-curvature="0"
     style="fill:#333333;fill-opacity:1" />
  <path
     d="m 258.522,56.563 a 1.173,1.173 0 0 0 -0.2,-0.591 1.29,1.29 0 0 0 -0.419,-0.377 1.9,1.9 0 0 0 -0.549,-0.2 2.866,2.866 0 0 0 -0.59,-0.062 4.849,4.849 0 0 0 -0.518,0.031 2,2 0 0 0 -0.543,0.134 1.072,1.072 0 0 0 -0.425,0.311 0.84,0.84 0 0 0 -0.17,0.549 0.684,0.684 0 0 0 0.14,0.45 1.02,1.02 0 0 0 0.331,0.269 1.665,1.665 0 0 0 0.393,0.145 c 0.135,0.031 0.24,0.054 0.316,0.067 q 0.682,0.114 1.294,0.2 a 6.1,6.1 0 0 1 1.046,0.233 2.286,2.286 0 0 1 1.014,0.616 1.749,1.749 0 0 1 0.373,1.216 2.27,2.27 0 0 1 -0.264,1.144 2.072,2.072 0 0 1 -0.7,0.735 2.924,2.924 0 0 1 -0.994,0.388 5.679,5.679 0 0 1 -1.139,0.115 4.647,4.647 0 0 1 -1.169,-0.151 3.386,3.386 0 0 1 -1.051,-0.466 2.831,2.831 0 0 1 -0.8,-0.812 2.715,2.715 0 0 1 -0.409,-1.191 h 1.315 a 1.463,1.463 0 0 0 0.295,0.689 1.744,1.744 0 0 0 0.528,0.44 2.256,2.256 0 0 0 0.672,0.233 4.038,4.038 0 0 0 0.73,0.067 c 0.145,0 0.318,-0.011 0.518,-0.031 a 2.072,2.072 0 0 0 0.569,-0.14 1.175,1.175 0 0 0 0.456,-0.321 0.823,0.823 0 0 0 0.186,-0.564 0.952,0.952 0 0 0 -0.067,-0.388 0.68,0.68 0 0 0 -0.2,-0.254 0.99,0.99 0 0 0 -0.321,-0.165 3.977,3.977 0 0 0 -0.44,-0.114 q -0.279,-0.063 -0.626,-0.109 -0.347,-0.046 -0.72,-0.114 -0.372,-0.068 -0.74,-0.165 a 4.122,4.122 0 0 1 -0.678,-0.244 2.167,2.167 0 0 1 -0.8,-0.631 1.7,1.7 0 0 1 -0.316,-1.077 2.142,2.142 0 0 1 0.249,-1.071 1.968,1.968 0 0 1 0.657,-0.7 2.857,2.857 0 0 1 0.942,-0.383 5.049,5.049 0 0 1 1.113,-0.119 4.215,4.215 0 0 1 1.113,0.145 2.952,2.952 0 0 1 0.947,0.439 2.257,2.257 0 0 1 0.668,0.751 2.426,2.426 0 0 1 0.284,1.077 z"
     id="path1075"
     inkscape:connector-curvature="0"
     style="fill:#333333;fill-opacity:1" />
  <path
     d="m 264.268,61.936 a 3.912,3.912 0 0 1 -1.538,-0.3 3.523,3.523 0 0 1 -1.2,-0.823 3.74,3.74 0 0 1 -0.781,-1.263 4.489,4.489 0 0 1 -0.28,-1.615 3.847,3.847 0 0 1 0.306,-1.558 3.625,3.625 0 0 1 0.828,-1.2 3.662,3.662 0 0 1 1.221,-0.766 4.086,4.086 0 0 1 1.486,-0.269 3.952,3.952 0 0 1 1.5,0.274 3.386,3.386 0 0 1 1.936,1.972 4.524,4.524 0 0 1 -0.011,3.131 3.875,3.875 0 0 1 -0.786,1.264 3.651,3.651 0 0 1 -2.676,1.144 z m -0.011,-1.3 a 2.119,2.119 0 0 0 0.922,-0.2 2.3,2.3 0 0 0 0.735,-0.548 2.571,2.571 0 0 0 0.486,-0.813 2.8,2.8 0 0 0 0.176,-0.994 3.226,3.226 0 0 0 -0.165,-1.051 2.452,2.452 0 0 0 -0.471,-0.828 2.113,2.113 0 0 0 -0.741,-0.538 2.383,2.383 0 0 0 -0.973,-0.192 2.153,2.153 0 0 0 -0.926,0.2 2.229,2.229 0 0 0 -0.725,0.538 2.387,2.387 0 0 0 -0.471,0.813 3.034,3.034 0 0 0 -0.166,1.009 3.148,3.148 0 0 0 0.166,1.036 2.557,2.557 0 0 0 0.466,0.828 2.089,2.089 0 0 0 0.73,0.548 2.256,2.256 0 0 0 0.957,0.187 z"
     id="path1077"
     inkscape:connector-curvature="0"
     style="fill:#333333;fill-opacity:1" />
  <path
     d="m 274.206,61.749 a 1.167,1.167 0 0 1 -0.176,-0.357 3.041,3.041 0 0 1 -0.093,-0.637 q -0.021,-0.341 -0.057,-0.683 a 2.159,2.159 0 0 0 -0.156,-0.621 1.1,1.1 0 0 0 -0.352,-0.456 1.054,1.054 0 0 0 -0.647,-0.176 h -2.381 v 2.93 h -1.459 v -7.391 h 3.82 a 6.214,6.214 0 0 1 1.009,0.082 2.524,2.524 0 0 1 0.89,0.316 1.775,1.775 0 0 1 0.632,0.657 2.2,2.2 0 0 1 0.243,1.1 1.79,1.79 0 0 1 -0.373,1.139 1.824,1.824 0 0 1 -1.025,0.641 1.69,1.69 0 0 1 0.648,0.394 2.01,2.01 0 0 1 0.388,0.559 2.813,2.813 0 0 1 0.212,0.678 7.382,7.382 0 0 1 0.1,0.74 q 0.021,0.3 0.057,0.58 a 0.952,0.952 0 0 0 0.233,0.507 z m -3.862,-6.2 v 2.121 h 2.65 a 1.041,1.041 0 0 0 0.746,-0.264 1,1 0 0 0 0.279,-0.761 1.228,1.228 0 0 0 -0.1,-0.522 0.913,0.913 0 0 0 -0.264,-0.342 0.992,0.992 0 0 0 -0.388,-0.181 2.048,2.048 0 0 0 -0.471,-0.052 z"
     id="path1079"
     inkscape:connector-curvature="0"
     style="fill:#333333;fill-opacity:1" />
  <path
     d="m 277.984,61.749 v -6.087 h -2.3 v -1.3 h 6.046 v 1.3 h -2.3 v 6.087 z"
     id="path1081"
     inkscape:connector-curvature="0"
     style="fill:#333333;fill-opacity:1" />
  <path
     d="m 282.5,61.749 v -7.391 h 1.459 v 7.391 z"
     id="path1083"
     inkscape:connector-curvature="0"
     style="fill:#333333;fill-opacity:1" />
  <path
     d="m 290.148,54.358 h 1.387 V 58.9 a 2.914,2.914 0 0 1 -0.833,2.288 3.6,3.6 0 0 1 -2.469,0.746 3.26,3.26 0 0 1 -2.371,-0.808 3.092,3.092 0 0 1 -0.828,-2.319 v -4.449 h 1.46 v 4.358 a 3.183,3.183 0 0 0 0.093,0.8 1.507,1.507 0 0 0 0.311,0.611 1.376,1.376 0 0 0 0.564,0.388 2.328,2.328 0 0 0 0.843,0.135 1.769,1.769 0 0 0 1.434,-0.5 2.158,2.158 0 0 0 0.409,-1.408 z"
     id="path1085"
     inkscape:connector-curvature="0"
     style="fill:#333333;fill-opacity:1" />
  <path
     d="m 298.865,61.749 v -5.932 l -2.1,5.932 h -0.828 l -2.091,-5.932 v 5.932 h -1.3 v -7.391 h 2.225 l 1.677,5.145 1.77,-5.145 h 2.123 v 7.391 z"
     id="path1087"
     inkscape:connector-curvature="0"
     style="fill:#333333;fill-opacity:1" />
  <path
     d="M 71.716,45.9 V 1.25 h 16.571 a 23.023,23.023 0 0 1 9.629,1.908 21.24,21.24 0 0 1 11.412,12.255 24.042,24.042 0 0 1 1.472,8.287 22.989,22.989 0 0 1 -1.563,8.441 21.2,21.2 0 0 1 -11.537,11.943 23.317,23.317 0 0 1 -9.41,1.813 z m 16.133,-9.32 a 14.091,14.091 0 0 0 4.721,-0.78 10.488,10.488 0 0 0 3.845,-2.345 10.974,10.974 0 0 0 2.564,-3.908 14.653,14.653 0 0 0 0.938,-5.471 17.327,17.327 0 0 0 -0.907,-5.847 11.874,11.874 0 0 0 -2.5,-4.22 A 10.125,10.125 0 0 0 92.7,11.474 13.709,13.709 0 0 0 87.791,10.63 H 82.6 v 25.95 z"
     id="path1091"
     inkscape:connector-curvature="0"
     style="fill:#333333;fill-opacity:1" />
  <path
     d="m 138.123,0 a 25.047,25.047 0 0 1 8.316,1.376 22.215,22.215 0 0 1 7,3.939 20.63,20.63 0 0 1 5.034,6.315 23.411,23.411 0 0 1 2.47,8.505 H 150.5 a 13.275,13.275 0 0 0 -4.5,-7.723 12.014,12.014 0 0 0 -7.753,-2.72 13.573,13.573 0 0 0 -5.222,0.969 11.817,11.817 0 0 0 -4.033,2.72 12.229,12.229 0 0 0 -2.626,4.252 15.569,15.569 0 0 0 -0.938,5.5 17.762,17.762 0 0 0 0.876,5.721 13.132,13.132 0 0 0 2.5,4.472 11.33,11.33 0 0 0 4,2.938 12.848,12.848 0 0 0 5.315,1.063 11.752,11.752 0 0 0 4.095,-0.75 13.335,13.335 0 0 0 3.721,-2.095 13.193,13.193 0 0 0 2.908,-3.251 12.771,12.771 0 0 0 1.719,-4.284 H 160.7 a 20.815,20.815 0 0 1 -2.439,7.973 23.147,23.147 0 0 1 -5.065,6.347 23.469,23.469 0 0 1 -6.972,4.221 22.026,22.026 0 0 1 -8.1,1.531 24.5,24.5 0 0 1 -9.661,-1.844 22.206,22.206 0 0 1 -7.441,-5.065 22.526,22.526 0 0 1 -4.784,-7.6 26.026,26.026 0 0 1 -1.688,-9.442 23.326,23.326 0 0 1 1.719,-8.942 22.365,22.365 0 0 1 4.815,-7.316 22.961,22.961 0 0 1 7.441,-4.971 A 24.319,24.319 0 0 1 138.123,0 Z"
     id="path1093"
     inkscape:connector-curvature="0"
     style="fill:#333333;fill-opacity:1" />
  <path
     d="M 166.136,45.9 V 1.25 H 192.4 a 13.586,13.586 0 0 1 6.378,1.408 13.093,13.093 0 0 1 4.408,3.657 15.708,15.708 0 0 1 2.564,5.065 19.492,19.492 0 0 1 0.844,5.628 13.81,13.81 0 0 1 -1.188,5.753 14.009,14.009 0 0 1 -3.189,4.5 14.736,14.736 0 0 1 -4.659,2.939 14.922,14.922 0 0 1 -5.6,1.063 H 177.2 V 45.9 Z m 10.88,-35.392 v 11.628 h 13.444 a 5.072,5.072 0 0 0 3.846,-1.47 5.327,5.327 0 0 0 1.407,-3.845 6.614,6.614 0 0 0 -1.5,-4.784 5.513,5.513 0 0 0 -4.127,-1.532 z"
     id="path1095"
     inkscape:connector-curvature="0"
     style="fill:#333333;fill-opacity:1" />
  <path
     d="M 211.72,45.9 V 1.25 h 26.262 a 13.58,13.58 0 0 1 6.378,1.408 13.1,13.1 0 0 1 4.409,3.657 15.686,15.686 0 0 1 2.563,5.065 19.493,19.493 0 0 1 0.845,5.628 13.81,13.81 0 0 1 -1.188,5.753 14.039,14.039 0 0 1 -3.189,4.5 14.747,14.747 0 0 1 -4.659,2.939 14.922,14.922 0 0 1 -5.6,1.063 H 222.788 V 45.9 Z M 222.6,10.505 v 11.631 h 13.444 a 5.072,5.072 0 0 0 3.846,-1.47 5.326,5.326 0 0 0 1.406,-3.845 6.619,6.619 0 0 0 -1.5,-4.784 5.514,5.514 0 0 0 -4.127,-1.532 z"
     id="path1097"
     inkscape:connector-curvature="0"
     style="fill:#333333;fill-opacity:1" />
  <path
     d="m 279.126,0 a 25.048,25.048 0 0 1 8.317,1.376 22.226,22.226 0 0 1 7,3.939 20.644,20.644 0 0 1 5.034,6.315 23.411,23.411 0 0 1 2.47,8.505 h -10.44 a 13.274,13.274 0 0 0 -4.5,-7.723 12.014,12.014 0 0 0 -7.753,-2.72 13.566,13.566 0 0 0 -5.222,0.969 11.817,11.817 0 0 0 -4.032,2.72 12.214,12.214 0 0 0 -2.626,4.252 15.569,15.569 0 0 0 -0.938,5.5 17.789,17.789 0 0 0 0.875,5.721 13.166,13.166 0 0 0 2.5,4.472 11.347,11.347 0 0 0 4,2.938 12.851,12.851 0 0 0 5.315,1.063 11.753,11.753 0 0 0 4.1,-0.75 13.363,13.363 0 0 0 3.721,-2.095 13.209,13.209 0 0 0 2.907,-3.251 12.752,12.752 0 0 0 1.72,-4.284 H 301.7 a 20.815,20.815 0 0 1 -2.439,7.973 23.165,23.165 0 0 1 -5.061,6.35 23.469,23.469 0 0 1 -6.972,4.221 22.027,22.027 0 0 1 -8.1,1.531 24.5,24.5 0 0 1 -9.661,-1.844 22.226,22.226 0 0 1 -7.441,-5.065 22.524,22.524 0 0 1 -4.783,-7.6 26,26 0 0 1 -1.688,-9.442 23.307,23.307 0 0 1 1.719,-8.942 22.333,22.333 0 0 1 4.815,-7.316 A 22.95,22.95 0 0 1 269.53,1.842 24.318,24.318 0 0 1 279.126,0 Z"
     id="path1099"
     inkscape:connector-curvature="0"
     style="fill:#333333;fill-opacity:1" />
</svg>
