<svg xmlns="http://www.w3.org/2000/svg" width="301.95" height="61.936" viewBox="0 0 301.95 61.936">
  <title>dcfc-logo</title>
  <g>
    <g>
      <g>
        <rect y="1.002" width="58.279" height="59.604" fill="#fff"/>
        <path d="M54.124,5.157V56.451H4.155V5.157H54.124M58.279,1H0v59.6H58.279V1Z" fill="#e6e6e6"/>
      </g>
      <g>
        <rect x="10.016" y="11.576" width="7.733" height="18.392" fill="#f7931e"/>
        <rect x="19.804" y="11.576" width="7.733" height="18.392" fill="#2aa0ea"/>
        <rect x="29.592" y="11.576" width="7.733" height="18.392" fill="#f74307"/>
        <rect x="39.38" y="11.576" width="7.733" height="18.392" fill="#045b91"/>
        <rect x="10.016" y="31.948" width="7.733" height="18.084" fill="#f74307"/>
        <rect x="19.804" y="31.948" width="7.733" height="18.084" fill="#045b91"/>
        <rect x="29.592" y="31.948" width="7.733" height="18.084" fill="#f7931e"/>
        <rect x="39.38" y="31.948" width="7.733" height="18.084" fill="#2aa0ea"/>
      </g>
    </g>
    <g>
      <path d="M71.261,54.358h2.692a3.722,3.722,0,0,1,1.573.315,3.451,3.451,0,0,1,1.149.839,3.634,3.634,0,0,1,.709,1.19,3.989,3.989,0,0,1,.244,1.372,3.881,3.881,0,0,1-.254,1.4,3.533,3.533,0,0,1-.73,1.169,3.493,3.493,0,0,1-1.154.808,3.736,3.736,0,0,1-1.527.3h-2.7Zm2.66,6.138a2.6,2.6,0,0,0,.844-.139,1.939,1.939,0,0,0,.72-.435,2.16,2.16,0,0,0,.5-.74,2.731,2.731,0,0,0,.186-1.056A3.194,3.194,0,0,0,76,57.034a2.234,2.234,0,0,0-.471-.787,1.872,1.872,0,0,0-.714-.471,2.538,2.538,0,0,0-.9-.155h-1.19V60.5Z" fill="#fff"/>
      <path d="M82.773,60.621H79.315l-.476,1.128H77.255l3.489-7.391h.807l3.313,7.391H83.239Zm-3.034-1.087h2.6l-1.284-3.1Z" fill="#fff"/>
      <path d="M86.044,61.749V55.662h-2.3v-1.3h6.045v1.3h-2.3v6.087Z" fill="#fff"/>
      <path d="M94.171,60.621H90.713l-.476,1.128H88.653l3.488-7.391h.808l3.313,7.391H94.636Zm-3.034-1.087h2.6l-1.284-3.1Z" fill="#fff"/>
      <path d="M103.083,54.151a4.086,4.086,0,0,1,1.346.222,3.509,3.509,0,0,1,1.139.647,3.47,3.47,0,0,1,.818,1.035,3.848,3.848,0,0,1,.4,1.388h-1.408a2.624,2.624,0,0,0-.3-.849,2.185,2.185,0,0,0-.518-.622,2.214,2.214,0,0,0-.683-.377,2.436,2.436,0,0,0-.792-.13,2.468,2.468,0,0,0-.978.187,2.217,2.217,0,0,0-.756.517,2.28,2.28,0,0,0-.487.792,2.911,2.911,0,0,0-.17,1.02,3.253,3.253,0,0,0,.165,1.061,2.507,2.507,0,0,0,.476.839,2.149,2.149,0,0,0,.751.553,2.381,2.381,0,0,0,.988.2,2.19,2.19,0,0,0,.772-.14,2.416,2.416,0,0,0,.694-.4,2.5,2.5,0,0,0,.538-.621,2.362,2.362,0,0,0,.3-.818h1.356a3.4,3.4,0,0,1-.4,1.3,3.882,3.882,0,0,1-.828,1.041,3.809,3.809,0,0,1-1.134.693,3.527,3.527,0,0,1-1.305.249,3.945,3.945,0,0,1-1.578-.306,3.655,3.655,0,0,1-1.217-.838,3.715,3.715,0,0,1-.781-1.258,4.375,4.375,0,0,1-.274-1.563,3.933,3.933,0,0,1,.279-1.481,3.656,3.656,0,0,1,.787-1.211,3.77,3.77,0,0,1,1.216-.823A3.919,3.919,0,0,1,103.083,54.151Z" fill="#fff"/>
      <path d="M111.086,61.936a3.907,3.907,0,0,1-1.537-.3,3.513,3.513,0,0,1-1.2-.823,3.726,3.726,0,0,1-.782-1.263,4.511,4.511,0,0,1-.279-1.615,3.847,3.847,0,0,1,.3-1.558,3.6,3.6,0,0,1,2.05-1.961,4.085,4.085,0,0,1,1.485-.269,3.949,3.949,0,0,1,1.5.274,3.386,3.386,0,0,1,1.936,1.972,4.532,4.532,0,0,1-.01,3.131,3.877,3.877,0,0,1-.787,1.264,3.647,3.647,0,0,1-2.676,1.144Zm-.01-1.3a2.111,2.111,0,0,0,.921-.2,2.3,2.3,0,0,0,.735-.548,2.571,2.571,0,0,0,.486-.813,2.777,2.777,0,0,0,.177-.994,3.226,3.226,0,0,0-.166-1.051,2.452,2.452,0,0,0-.471-.828,2.109,2.109,0,0,0-.74-.538,2.387,2.387,0,0,0-.973-.192,2.157,2.157,0,0,0-.927.2,2.239,2.239,0,0,0-.725.538,2.42,2.42,0,0,0-.471.813,3.033,3.033,0,0,0-.165,1.009,3.148,3.148,0,0,0,.165,1.036,2.576,2.576,0,0,0,.466.828,2.1,2.1,0,0,0,.73.548A2.261,2.261,0,0,0,111.076,60.631Z" fill="#fff"/>
      <path d="M122,61.749V55.817l-2.1,5.932h-.828l-2.092-5.932v5.932h-1.3V54.358H117.9l1.677,5.145,1.77-5.145h2.122v7.391Z" fill="#fff"/>
      <path d="M130.869,61.749V55.817l-2.1,5.932h-.829l-2.091-5.932v5.932h-1.3V54.358h2.226l1.677,5.145,1.77-5.145h2.122v7.391Z" fill="#fff"/>
      <path d="M136.946,61.936a3.912,3.912,0,0,1-1.538-.3,3.509,3.509,0,0,1-1.2-.823,3.726,3.726,0,0,1-.782-1.263,4.511,4.511,0,0,1-.279-1.615,3.847,3.847,0,0,1,.305-1.558,3.6,3.6,0,0,1,2.05-1.961,4.081,4.081,0,0,1,1.485-.269,3.952,3.952,0,0,1,1.5.274,3.386,3.386,0,0,1,1.936,1.972,4.532,4.532,0,0,1-.01,3.131,3.877,3.877,0,0,1-.787,1.264,3.651,3.651,0,0,1-2.676,1.144Zm-.011-1.3a2.112,2.112,0,0,0,.922-.2,2.3,2.3,0,0,0,.735-.548,2.571,2.571,0,0,0,.486-.813,2.776,2.776,0,0,0,.176-.994,3.226,3.226,0,0,0-.165-1.051,2.452,2.452,0,0,0-.471-.828,2.113,2.113,0,0,0-.741-.538,2.38,2.38,0,0,0-.973-.192,2.153,2.153,0,0,0-.926.2,2.229,2.229,0,0,0-.725.538,2.4,2.4,0,0,0-.471.813,3.033,3.033,0,0,0-.165,1.009,3.148,3.148,0,0,0,.165,1.036,2.557,2.557,0,0,0,.466.828,2.089,2.089,0,0,0,.73.548A2.256,2.256,0,0,0,136.935,60.631Z" fill="#fff"/>
      <path d="M146.7,61.749l-3.883-5.569v5.569h-1.283V54.358h1.884l3.219,4.72v-4.72h1.315v7.391Z" fill="#fff"/>
      <path d="M153.675,56.563a1.173,1.173,0,0,0-.2-.591,1.3,1.3,0,0,0-.419-.377,1.9,1.9,0,0,0-.549-.2,2.866,2.866,0,0,0-.59-.062,4.834,4.834,0,0,0-.518.031,2,2,0,0,0-.543.134,1.065,1.065,0,0,0-.425.311.834.834,0,0,0-.17.549.689.689,0,0,0,.139.45,1.024,1.024,0,0,0,.332.269,1.649,1.649,0,0,0,.393.145c.134.031.24.054.316.067q.683.114,1.294.2a6.087,6.087,0,0,1,1.045.233,2.289,2.289,0,0,1,1.015.616,1.754,1.754,0,0,1,.373,1.216A2.28,2.28,0,0,1,154.9,60.7a2.072,2.072,0,0,1-.7.735,2.924,2.924,0,0,1-.994.388,5.686,5.686,0,0,1-1.139.115,4.66,4.66,0,0,1-1.17-.151,3.38,3.38,0,0,1-1.05-.466,2.818,2.818,0,0,1-.8-.812,2.715,2.715,0,0,1-.409-1.191h1.314a1.484,1.484,0,0,0,.295.689,1.769,1.769,0,0,0,.528.44,2.273,2.273,0,0,0,.673.233,4.03,4.03,0,0,0,.73.067c.145,0,.317-.011.518-.031a2.081,2.081,0,0,0,.569-.14,1.179,1.179,0,0,0,.455-.321.819.819,0,0,0,.187-.564.969.969,0,0,0-.067-.388.68.68,0,0,0-.2-.254.99.99,0,0,0-.321-.165,3.977,3.977,0,0,0-.44-.114q-.279-.063-.626-.109c-.232-.031-.471-.069-.72-.114s-.5-.1-.74-.165a4.122,4.122,0,0,1-.678-.244,2.159,2.159,0,0,1-.8-.631,1.7,1.7,0,0,1-.316-1.077,2.153,2.153,0,0,1,.248-1.071,1.979,1.979,0,0,1,.658-.7,2.857,2.857,0,0,1,.942-.383,5.049,5.049,0,0,1,1.113-.119,4.215,4.215,0,0,1,1.113.145,2.952,2.952,0,0,1,.947.439,2.255,2.255,0,0,1,.667.751,2.426,2.426,0,0,1,.285,1.077Z" fill="#fff"/>
      <path d="M158.6,61.749V54.358h4.255a2.152,2.152,0,0,1,1.776.833,2.489,2.489,0,0,1,.419.828,3.247,3.247,0,0,1,.135.916,2.29,2.29,0,0,1-.192.947,2.247,2.247,0,0,1-.518.736,2.38,2.38,0,0,1-.76.476,2.469,2.469,0,0,1-.911.171h-2.723v2.484Zm1.46-6.149v2.433h2.578a1.048,1.048,0,0,0,.781-.311,1.115,1.115,0,0,0,.306-.818,1.474,1.474,0,0,0-.285-.947,1,1,0,0,0-.833-.357Z" fill="#fff"/>
      <path d="M166,61.749V54.358h1.46v7.391Z" fill="#fff"/>
      <path d="M168.654,61.749V54.358h1.46v6.087h4.524v1.3Z" fill="#fff"/>
      <path d="M178.531,61.936a3.912,3.912,0,0,1-1.538-.3,3.523,3.523,0,0,1-1.2-.823,3.74,3.74,0,0,1-.781-1.263,4.489,4.489,0,0,1-.28-1.615,3.847,3.847,0,0,1,.306-1.558,3.625,3.625,0,0,1,.828-1.2,3.662,3.662,0,0,1,1.221-.766,4.086,4.086,0,0,1,1.486-.269,3.952,3.952,0,0,1,1.5.274A3.386,3.386,0,0,1,182,56.4a4.524,4.524,0,0,1-.011,3.131,3.875,3.875,0,0,1-.786,1.264,3.651,3.651,0,0,1-2.676,1.144Zm-.011-1.3a2.119,2.119,0,0,0,.922-.2,2.308,2.308,0,0,0,.735-.548,2.571,2.571,0,0,0,.486-.813,2.8,2.8,0,0,0,.176-.994,3.226,3.226,0,0,0-.165-1.051,2.452,2.452,0,0,0-.471-.828,2.113,2.113,0,0,0-.741-.538,2.383,2.383,0,0,0-.973-.192,2.153,2.153,0,0,0-.926.2,2.229,2.229,0,0,0-.725.538,2.387,2.387,0,0,0-.471.813,3.034,3.034,0,0,0-.166,1.009,3.148,3.148,0,0,0,.166,1.036,2.557,2.557,0,0,0,.466.828,2.089,2.089,0,0,0,.73.548A2.256,2.256,0,0,0,178.52,60.631Z" fill="#fff"/>
      <path d="M184.649,61.749V55.662h-2.3v-1.3H188.4v1.3h-2.3v6.087Z" fill="#fff"/>
      <path d="M191.8,61.749V54.358h4.255a2.148,2.148,0,0,1,1.775.833,2.473,2.473,0,0,1,.42.828,3.281,3.281,0,0,1,.134.916,2.306,2.306,0,0,1-.191.947,2.262,2.262,0,0,1-.518.736,2.373,2.373,0,0,1-.761.476,2.469,2.469,0,0,1-.911.171h-2.722v2.484Zm1.46-6.149v2.433h2.578a1.049,1.049,0,0,0,.781-.311,1.115,1.115,0,0,0,.3-.818,1.474,1.474,0,0,0-.284-.947,1,1,0,0,0-.834-.357Z" fill="#fff"/>
      <path d="M203.945,61.749V58.83h-3.323v2.919h-1.46V54.358h1.46v3.167h3.323V54.358h1.439v7.391Z" fill="#fff"/>
      <path d="M211.482,60.621h-3.458l-.476,1.128h-1.584l3.489-7.391h.807l3.313,7.391h-1.625Zm-3.034-1.087h2.6l-1.284-3.1Z" fill="#fff"/>
      <path d="M218.542,56.563a1.173,1.173,0,0,0-.2-.591,1.3,1.3,0,0,0-.419-.377,1.9,1.9,0,0,0-.549-.2,2.866,2.866,0,0,0-.59-.062,4.849,4.849,0,0,0-.518.031,2,2,0,0,0-.543.134,1.065,1.065,0,0,0-.425.311.84.84,0,0,0-.17.549.684.684,0,0,0,.14.45,1.02,1.02,0,0,0,.331.269,1.649,1.649,0,0,0,.393.145c.135.031.24.054.316.067q.682.114,1.294.2a6.1,6.1,0,0,1,1.046.233,2.291,2.291,0,0,1,1.014.616,1.749,1.749,0,0,1,.373,1.216,2.27,2.27,0,0,1-.264,1.144,2.072,2.072,0,0,1-.7.735,2.924,2.924,0,0,1-.994.388,5.686,5.686,0,0,1-1.139.115,4.647,4.647,0,0,1-1.169-.151,3.386,3.386,0,0,1-1.051-.466,2.831,2.831,0,0,1-.8-.812,2.715,2.715,0,0,1-.409-1.191h1.314a1.474,1.474,0,0,0,.3.689,1.744,1.744,0,0,0,.528.44,2.256,2.256,0,0,0,.672.233,4.038,4.038,0,0,0,.73.067c.145,0,.317-.011.518-.031a2.072,2.072,0,0,0,.569-.14,1.183,1.183,0,0,0,.456-.321.823.823,0,0,0,.186-.564.952.952,0,0,0-.067-.388.68.68,0,0,0-.2-.254.99.99,0,0,0-.321-.165,3.977,3.977,0,0,0-.44-.114q-.279-.063-.626-.109t-.72-.114q-.372-.068-.74-.165a4.122,4.122,0,0,1-.678-.244,2.167,2.167,0,0,1-.8-.631,1.7,1.7,0,0,1-.316-1.077,2.142,2.142,0,0,1,.249-1.071,1.968,1.968,0,0,1,.657-.7,2.857,2.857,0,0,1,.942-.383,5.049,5.049,0,0,1,1.113-.119,4.215,4.215,0,0,1,1.113.145,2.952,2.952,0,0,1,.947.439,2.257,2.257,0,0,1,.668.751,2.426,2.426,0,0,1,.284,1.077Z" fill="#fff"/>
      <path d="M220.788,61.749V54.358H226.6v1.231h-4.348V57.36h3.572v1.2h-3.572v1.956h4.359v1.232Z" fill="#fff"/>
      <path d="M233.791,54.151a4.1,4.1,0,0,1,1.346.222,3.515,3.515,0,0,1,1.138.647,3.454,3.454,0,0,1,.818,1.035,3.848,3.848,0,0,1,.4,1.388h-1.408a2.624,2.624,0,0,0-.295-.849,2.149,2.149,0,0,0-1.2-1,2.436,2.436,0,0,0-.792-.13,2.468,2.468,0,0,0-.978.187,2.217,2.217,0,0,0-.756.517,2.28,2.28,0,0,0-.487.792,2.911,2.911,0,0,0-.17,1.02,3.253,3.253,0,0,0,.165,1.061,2.525,2.525,0,0,0,.476.839,2.149,2.149,0,0,0,.751.553,2.383,2.383,0,0,0,.989.2,2.189,2.189,0,0,0,.771-.14,2.416,2.416,0,0,0,.694-.4,2.5,2.5,0,0,0,.538-.621,2.362,2.362,0,0,0,.3-.818h1.356a3.4,3.4,0,0,1-.4,1.3,3.882,3.882,0,0,1-.828,1.041,3.809,3.809,0,0,1-1.134.693,3.526,3.526,0,0,1-1.3.249,3.946,3.946,0,0,1-1.579-.306A3.64,3.64,0,0,1,231,60.792a3.7,3.7,0,0,1-.782-1.258,4.375,4.375,0,0,1-.274-1.563,3.933,3.933,0,0,1,.279-1.481,3.672,3.672,0,0,1,.787-1.211,3.77,3.77,0,0,1,1.216-.823A3.921,3.921,0,0,1,233.791,54.151Z" fill="#fff"/>
      <path d="M241.793,61.936a3.907,3.907,0,0,1-1.537-.3,3.513,3.513,0,0,1-1.2-.823,3.726,3.726,0,0,1-.782-1.263,4.511,4.511,0,0,1-.279-1.615,3.847,3.847,0,0,1,.305-1.558,3.6,3.6,0,0,1,2.05-1.961,4.085,4.085,0,0,1,1.485-.269,3.949,3.949,0,0,1,1.5.274,3.386,3.386,0,0,1,1.936,1.972,4.532,4.532,0,0,1-.01,3.131,3.877,3.877,0,0,1-.787,1.264,3.647,3.647,0,0,1-2.676,1.144Zm-.01-1.3a2.111,2.111,0,0,0,.921-.2,2.3,2.3,0,0,0,.735-.548,2.592,2.592,0,0,0,.487-.813,2.8,2.8,0,0,0,.176-.994,3.226,3.226,0,0,0-.166-1.051,2.452,2.452,0,0,0-.471-.828,2.109,2.109,0,0,0-.74-.538,2.387,2.387,0,0,0-.973-.192,2.157,2.157,0,0,0-.927.2,2.239,2.239,0,0,0-.725.538,2.42,2.42,0,0,0-.471.813,3.033,3.033,0,0,0-.165,1.009,3.148,3.148,0,0,0,.165,1.036,2.576,2.576,0,0,0,.466.828,2.1,2.1,0,0,0,.73.548A2.261,2.261,0,0,0,241.783,60.631Z" fill="#fff"/>
      <path d="M251.545,61.749l-3.882-5.569v5.569h-1.284V54.358h1.884l3.22,4.72v-4.72H252.8v7.391Z" fill="#fff"/>
      <path d="M258.522,56.563a1.173,1.173,0,0,0-.2-.591,1.29,1.29,0,0,0-.419-.377,1.9,1.9,0,0,0-.549-.2,2.866,2.866,0,0,0-.59-.062,4.849,4.849,0,0,0-.518.031,2,2,0,0,0-.543.134,1.072,1.072,0,0,0-.425.311.84.84,0,0,0-.17.549.684.684,0,0,0,.14.45,1.02,1.02,0,0,0,.331.269,1.665,1.665,0,0,0,.393.145c.135.031.24.054.316.067q.682.114,1.294.2a6.1,6.1,0,0,1,1.046.233,2.286,2.286,0,0,1,1.014.616,1.749,1.749,0,0,1,.373,1.216,2.27,2.27,0,0,1-.264,1.144,2.072,2.072,0,0,1-.7.735,2.924,2.924,0,0,1-.994.388,5.679,5.679,0,0,1-1.139.115,4.647,4.647,0,0,1-1.169-.151,3.386,3.386,0,0,1-1.051-.466,2.831,2.831,0,0,1-.8-.812,2.715,2.715,0,0,1-.409-1.191h1.315a1.463,1.463,0,0,0,.295.689,1.744,1.744,0,0,0,.528.44,2.256,2.256,0,0,0,.672.233,4.038,4.038,0,0,0,.73.067c.145,0,.318-.011.518-.031a2.072,2.072,0,0,0,.569-.14,1.175,1.175,0,0,0,.456-.321.823.823,0,0,0,.186-.564.952.952,0,0,0-.067-.388.68.68,0,0,0-.2-.254.99.99,0,0,0-.321-.165,3.977,3.977,0,0,0-.44-.114q-.279-.063-.626-.109t-.72-.114q-.372-.068-.74-.165a4.122,4.122,0,0,1-.678-.244,2.167,2.167,0,0,1-.8-.631,1.7,1.7,0,0,1-.316-1.077,2.142,2.142,0,0,1,.249-1.071,1.968,1.968,0,0,1,.657-.7,2.857,2.857,0,0,1,.942-.383,5.049,5.049,0,0,1,1.113-.119,4.215,4.215,0,0,1,1.113.145,2.952,2.952,0,0,1,.947.439,2.257,2.257,0,0,1,.668.751,2.426,2.426,0,0,1,.284,1.077Z" fill="#fff"/>
      <path d="M264.268,61.936a3.912,3.912,0,0,1-1.538-.3,3.523,3.523,0,0,1-1.2-.823,3.74,3.74,0,0,1-.781-1.263,4.489,4.489,0,0,1-.28-1.615,3.847,3.847,0,0,1,.306-1.558,3.625,3.625,0,0,1,.828-1.2,3.662,3.662,0,0,1,1.221-.766,4.086,4.086,0,0,1,1.486-.269,3.952,3.952,0,0,1,1.5.274,3.386,3.386,0,0,1,1.936,1.972,4.524,4.524,0,0,1-.011,3.131,3.875,3.875,0,0,1-.786,1.264,3.651,3.651,0,0,1-2.676,1.144Zm-.011-1.3a2.119,2.119,0,0,0,.922-.2,2.3,2.3,0,0,0,.735-.548,2.571,2.571,0,0,0,.486-.813,2.8,2.8,0,0,0,.176-.994,3.226,3.226,0,0,0-.165-1.051,2.452,2.452,0,0,0-.471-.828,2.113,2.113,0,0,0-.741-.538,2.383,2.383,0,0,0-.973-.192,2.153,2.153,0,0,0-.926.2,2.229,2.229,0,0,0-.725.538,2.387,2.387,0,0,0-.471.813,3.034,3.034,0,0,0-.166,1.009,3.148,3.148,0,0,0,.166,1.036,2.557,2.557,0,0,0,.466.828,2.089,2.089,0,0,0,.73.548A2.256,2.256,0,0,0,264.257,60.631Z" fill="#fff"/>
      <path d="M274.206,61.749a1.167,1.167,0,0,1-.176-.357,3.041,3.041,0,0,1-.093-.637q-.021-.341-.057-.683a2.159,2.159,0,0,0-.156-.621,1.1,1.1,0,0,0-.352-.456,1.054,1.054,0,0,0-.647-.176h-2.381v2.93h-1.459V54.358h3.82a6.214,6.214,0,0,1,1.009.082,2.524,2.524,0,0,1,.89.316,1.775,1.775,0,0,1,.632.657,2.2,2.2,0,0,1,.243,1.1,1.79,1.79,0,0,1-.373,1.139,1.824,1.824,0,0,1-1.025.641,1.69,1.69,0,0,1,.648.394,2.01,2.01,0,0,1,.388.559,2.813,2.813,0,0,1,.212.678,7.382,7.382,0,0,1,.1.74q.021.3.057.58a.952.952,0,0,0,.233.507Zm-3.862-6.2V57.67h2.65a1.041,1.041,0,0,0,.746-.264,1,1,0,0,0,.279-.761,1.228,1.228,0,0,0-.1-.522.913.913,0,0,0-.264-.342.992.992,0,0,0-.388-.181,2.048,2.048,0,0,0-.471-.052Z" fill="#fff"/>
      <path d="M277.984,61.749V55.662h-2.3v-1.3h6.046v1.3h-2.3v6.087Z" fill="#fff"/>
      <path d="M282.5,61.749V54.358h1.459v7.391Z" fill="#fff"/>
      <path d="M290.148,54.358h1.387V58.9a2.914,2.914,0,0,1-.833,2.288,3.6,3.6,0,0,1-2.469.746,3.26,3.26,0,0,1-2.371-.808,3.092,3.092,0,0,1-.828-2.319V54.358h1.46v4.358a3.183,3.183,0,0,0,.093.8,1.507,1.507,0,0,0,.311.611,1.376,1.376,0,0,0,.564.388,2.328,2.328,0,0,0,.843.135,1.769,1.769,0,0,0,1.434-.5,2.158,2.158,0,0,0,.409-1.408Z" fill="#fff"/>
      <path d="M298.865,61.749V55.817l-2.1,5.932h-.828l-2.091-5.932v5.932h-1.3V54.358h2.225l1.677,5.145,1.77-5.145h2.123v7.391Z" fill="#fff"/>
    </g>
    <g>
      <path d="M71.716,45.9V1.25H88.287a23.023,23.023,0,0,1,9.629,1.908,21.24,21.24,0,0,1,11.412,12.255A24.042,24.042,0,0,1,110.8,23.7a22.989,22.989,0,0,1-1.563,8.441A21.2,21.2,0,0,1,97.7,44.084a23.317,23.317,0,0,1-9.41,1.813ZM87.849,36.58A14.091,14.091,0,0,0,92.57,35.8a10.488,10.488,0,0,0,3.845-2.345,10.974,10.974,0,0,0,2.564-3.908,14.653,14.653,0,0,0,.938-5.471,17.327,17.327,0,0,0-.907-5.847,11.874,11.874,0,0,0-2.5-4.22A10.125,10.125,0,0,0,92.7,11.474a13.709,13.709,0,0,0-4.909-.844H82.6V36.58Z" fill="#fff"/>
      <path d="M138.123,0a25.047,25.047,0,0,1,8.316,1.376,22.215,22.215,0,0,1,7,3.939,20.63,20.63,0,0,1,5.034,6.315,23.411,23.411,0,0,1,2.47,8.505H150.5a13.275,13.275,0,0,0-4.5-7.723,12.014,12.014,0,0,0-7.753-2.72,13.573,13.573,0,0,0-5.222.969,11.817,11.817,0,0,0-4.033,2.72,12.229,12.229,0,0,0-2.626,4.252,15.569,15.569,0,0,0-.938,5.5,17.762,17.762,0,0,0,.876,5.721,13.132,13.132,0,0,0,2.5,4.472,11.33,11.33,0,0,0,4,2.938,12.848,12.848,0,0,0,5.315,1.063,11.752,11.752,0,0,0,4.095-.75,13.335,13.335,0,0,0,3.721-2.095,13.193,13.193,0,0,0,2.908-3.251,12.771,12.771,0,0,0,1.719-4.284H160.7a20.815,20.815,0,0,1-2.439,7.973,23.147,23.147,0,0,1-5.065,6.347,23.469,23.469,0,0,1-6.972,4.221,22.026,22.026,0,0,1-8.1,1.531,24.5,24.5,0,0,1-9.661-1.844,22.206,22.206,0,0,1-7.441-5.065,22.526,22.526,0,0,1-4.784-7.6,26.026,26.026,0,0,1-1.688-9.442,23.326,23.326,0,0,1,1.719-8.942,22.365,22.365,0,0,1,4.815-7.316,22.961,22.961,0,0,1,7.441-4.971A24.319,24.319,0,0,1,138.123,0Z" fill="#fff"/>
      <path d="M166.136,45.9V1.25H192.4a13.586,13.586,0,0,1,6.378,1.408,13.093,13.093,0,0,1,4.408,3.657,15.708,15.708,0,0,1,2.564,5.065,19.492,19.492,0,0,1,.844,5.628,13.81,13.81,0,0,1-1.188,5.753,14.009,14.009,0,0,1-3.189,4.5,14.736,14.736,0,0,1-4.659,2.939,14.922,14.922,0,0,1-5.6,1.063H177.2V45.9Zm10.88-35.392V22.136H190.46a5.072,5.072,0,0,0,3.846-1.47,5.327,5.327,0,0,0,1.407-3.845,6.614,6.614,0,0,0-1.5-4.784,5.513,5.513,0,0,0-4.127-1.532Z" fill="#fff"/>
      <path d="M211.72,45.9V1.25h26.262a13.58,13.58,0,0,1,6.378,1.408,13.1,13.1,0,0,1,4.409,3.657,15.686,15.686,0,0,1,2.563,5.065,19.493,19.493,0,0,1,.845,5.628,13.81,13.81,0,0,1-1.188,5.753,14.039,14.039,0,0,1-3.189,4.5,14.747,14.747,0,0,1-4.659,2.939,14.922,14.922,0,0,1-5.6,1.063H222.788V45.9ZM222.6,10.505V22.136h13.444a5.072,5.072,0,0,0,3.846-1.47,5.326,5.326,0,0,0,1.406-3.845,6.619,6.619,0,0,0-1.5-4.784,5.514,5.514,0,0,0-4.127-1.532Z" fill="#fff"/>
      <path d="M279.126,0a25.048,25.048,0,0,1,8.317,1.376,22.226,22.226,0,0,1,7,3.939,20.644,20.644,0,0,1,5.034,6.315,23.411,23.411,0,0,1,2.47,8.505H291.507a13.274,13.274,0,0,0-4.5-7.723,12.014,12.014,0,0,0-7.753-2.72,13.566,13.566,0,0,0-5.222.969A11.817,11.817,0,0,0,270,13.381a12.214,12.214,0,0,0-2.626,4.252,15.569,15.569,0,0,0-.938,5.5,17.789,17.789,0,0,0,.875,5.721,13.166,13.166,0,0,0,2.5,4.472,11.347,11.347,0,0,0,4,2.938,12.851,12.851,0,0,0,5.315,1.063,11.753,11.753,0,0,0,4.1-.75,13.363,13.363,0,0,0,3.721-2.095,13.209,13.209,0,0,0,2.907-3.251,12.752,12.752,0,0,0,1.72-4.284H301.7a20.815,20.815,0,0,1-2.439,7.973A23.165,23.165,0,0,1,294.2,41.27a23.469,23.469,0,0,1-6.972,4.221,22.027,22.027,0,0,1-8.1,1.531,24.5,24.5,0,0,1-9.661-1.844,22.226,22.226,0,0,1-7.441-5.065,22.524,22.524,0,0,1-4.783-7.6,26,26,0,0,1-1.688-9.442,23.307,23.307,0,0,1,1.719-8.942,22.333,22.333,0,0,1,4.815-7.316,22.95,22.95,0,0,1,7.441-4.971A24.318,24.318,0,0,1,279.126,0Z" fill="#fff"/>
    </g>
  </g>
</svg>
