<?xml version="1.0" encoding="UTF-8" standalone="no"?>
<!-- Created with Inkscape (http://www.inkscape.org/) -->

<svg
   xmlns:dc="http://purl.org/dc/elements/1.1/"
   xmlns:cc="http://creativecommons.org/ns#"
   xmlns:rdf="http://www.w3.org/1999/02/22-rdf-syntax-ns#"
   xmlns:svg="http://www.w3.org/2000/svg"
   xmlns="http://www.w3.org/2000/svg"
   xmlns:sodipodi="http://sodipodi.sourceforge.net/DTD/sodipodi-0.dtd"
   xmlns:inkscape="http://www.inkscape.org/namespaces/inkscape"
   version="1.1"
   id="svg885"
   xml:space="preserve"
   width="278.1918"
   height="415.87637"
   viewBox="0 0 278.1918 415.87638"
   sodipodi:docname="illustration01.svg"
   inkscape:version="0.92.3 (2405546, 2018-03-11)"><metadata
     id="metadata891"><rdf:RDF><cc:Work
         rdf:about=""><dc:format>image/svg+xml</dc:format><dc:type
           rdf:resource="http://purl.org/dc/dcmitype/StillImage" /><dc:title></dc:title></cc:Work></rdf:RDF></metadata><defs
     id="defs889"><clipPath
       clipPathUnits="userSpaceOnUse"
       id="clipPath905"><path
         d="M 0,500 H 500 V 0 H 0 Z"
         id="path903"
         inkscape:connector-curvature="0" /></clipPath><clipPath
       clipPathUnits="userSpaceOnUse"
       id="clipPath913"><path
         d="M 0,500 H 500 V 218.59 H 0 Z"
         id="path911"
         inkscape:connector-curvature="0" /></clipPath><pattern
       patternTransform="translate(-670,650)"
       patternUnits="userSpaceOnUse"
       x="0"
       y="0"
       width="72"
       height="72"
       id="pattern935"><path
         d="m 8.194,-66.806 -1.167,0 0,72 1.167,0 0,-72 z"
         style="fill:#e6e7e8;fill-opacity:1;fill-rule:nonzero;stroke:none"
         id="path915" /><path
         d="m 22.389,-66.806 -1.167,0 0,72 1.167,0 0,-72 z"
         style="fill:#e6e7e8;fill-opacity:1;fill-rule:nonzero;stroke:none"
         id="path917" /><path
         d="m 50.778,-66.806 -1.167,0 0,72 1.167,0 0,-72 z"
         style="fill:#e6e7e8;fill-opacity:1;fill-rule:nonzero;stroke:none"
         id="path919" /><path
         d="m 64.972,-66.806 -1.167,0 0,72 1.167,0 0,-72 z"
         style="fill:#e6e7e8;fill-opacity:1;fill-rule:nonzero;stroke:none"
         id="path921" /><path
         d="m 36.583,-66.806 -1.167,0 0,72 1.167,0 0,-72 z"
         style="fill:#e6e7e8;fill-opacity:1;fill-rule:nonzero;stroke:none"
         id="path923" /><path
         d="m 8.194,5.194 -1.167,0 0,72 1.167,0 0,-72 z"
         style="fill:#e6e7e8;fill-opacity:1;fill-rule:nonzero;stroke:none"
         id="path925" /><path
         d="m 22.389,5.194 -1.167,0 0,72 1.167,0 0,-72 z"
         style="fill:#e6e7e8;fill-opacity:1;fill-rule:nonzero;stroke:none"
         id="path927" /><path
         d="m 50.778,5.194 -1.167,0 0,72 1.167,0 0,-72 z"
         style="fill:#e6e7e8;fill-opacity:1;fill-rule:nonzero;stroke:none"
         id="path929" /><path
         d="m 64.972,5.194 -1.167,0 0,72 1.167,0 0,-72 z"
         style="fill:#e6e7e8;fill-opacity:1;fill-rule:nonzero;stroke:none"
         id="path931" /><path
         d="m 36.583,5.194 -1.167,0 0,72 1.167,0 0,-72 z"
         style="fill:#e6e7e8;fill-opacity:1;fill-rule:nonzero;stroke:none"
         id="path933" /></pattern><pattern
       patternTransform="translate(-970.8952,650)"
       patternUnits="userSpaceOnUse"
       x="0"
       y="0"
       width="28.7998"
       height="28.8008"
       id="pattern1011"><path
         d="m 56.879,0.001 -28.799,0 0,28.799 28.799,0 0,-28.799 z"
         style="fill:#375f73;fill-opacity:1;fill-rule:nonzero;stroke:none"
         id="path955" /><path
         d="m 28.08,0.001 -28.799,0 0,28.799 28.799,0 0,-28.799 z"
         style="fill:#375f73;fill-opacity:1;fill-rule:nonzero;stroke:none"
         id="path957" /><g
         transform="translate(28.08,-1.4396)"
         id="g961"><path
           d="m 0,0 c 0.795,0 1.439,0.645 1.439,1.439 0,0.795 -0.644,1.44 -1.439,1.44 -0.796,0 -1.44,-0.645 -1.44,-1.44 C -1.44,0.645 -0.796,0 0,0"
           style="fill:#3c687a;fill-opacity:1;fill-rule:nonzero;stroke:none"
           id="path959" /></g><g
         transform="translate(13.6797,-1.4396)"
         id="g965"><path
           d="m 0,0 c 0.795,0 1.44,0.645 1.44,1.439 0,0.795 -0.645,1.44 -1.44,1.44 -0.796,0 -1.439,-0.645 -1.439,-1.44 C -1.439,0.645 -0.796,0 0,0"
           style="fill:#3c687a;fill-opacity:1;fill-rule:nonzero;stroke:none"
           id="path963" /></g><g
         transform="translate(28.08,12.9588)"
         id="g969"><path
           d="m 0,0 c 0.795,0 1.439,0.646 1.439,1.441 0,0.795 -0.644,1.44 -1.439,1.44 -0.796,0 -1.44,-0.645 -1.44,-1.44 C -1.44,0.646 -0.796,0 0,0"
           style="fill:#3c687a;fill-opacity:1;fill-rule:nonzero;stroke:none"
           id="path967" /></g><g
         transform="translate(13.6797,12.9588)"
         id="g973"><path
           d="m 0,0 c 0.795,0 1.44,0.646 1.44,1.441 0,0.795 -0.645,1.44 -1.44,1.44 -0.796,0 -1.439,-0.645 -1.439,-1.44 C -1.439,0.646 -0.796,0 0,0"
           style="fill:#3c687a;fill-opacity:1;fill-rule:nonzero;stroke:none"
           id="path971" /></g><g
         transform="translate(6.4795,5.7596)"
         id="g977"><path
           d="M 0,0 C 0.795,0 1.44,0.645 1.44,1.439 1.44,2.236 0.795,2.881 0,2.881 -0.796,2.881 -1.439,2.236 -1.439,1.439 -1.439,0.645 -0.796,0 0,0"
           style="fill:#3c687a;fill-opacity:1;fill-rule:nonzero;stroke:none"
           id="path975" /></g><g
         transform="translate(20.8799,5.7596)"
         id="g981"><path
           d="M 0,0 C 0.795,0 1.44,0.645 1.44,1.439 1.44,2.236 0.795,2.881 0,2.881 -0.796,2.881 -1.44,2.236 -1.44,1.439 -1.44,0.645 -0.796,0 0,0"
           style="fill:#3c687a;fill-opacity:1;fill-rule:nonzero;stroke:none"
           id="path979" /></g><g
         transform="translate(6.4795,20.16)"
         id="g985"><path
           d="M 0,0 C 0.795,0 1.44,0.645 1.44,1.439 1.44,2.236 0.795,2.881 0,2.881 -0.796,2.881 -1.439,2.236 -1.439,1.439 -1.439,0.645 -0.796,0 0,0"
           style="fill:#3c687a;fill-opacity:1;fill-rule:nonzero;stroke:none"
           id="path983" /></g><g
         transform="translate(20.8799,20.16)"
         id="g989"><path
           d="M 0,0 C 0.795,0 1.44,0.645 1.44,1.439 1.44,2.236 0.795,2.881 0,2.881 -0.796,2.881 -1.44,2.236 -1.44,1.439 -1.44,0.645 -0.796,0 0,0"
           style="fill:#3c687a;fill-opacity:1;fill-rule:nonzero;stroke:none"
           id="path987" /></g><g
         transform="translate(-0.7197,-1.4396)"
         id="g993"><path
           d="m 0,0 c 0.795,0 1.439,0.645 1.439,1.439 0,0.795 -0.644,1.44 -1.439,1.44 -0.796,0 -1.44,-0.645 -1.44,-1.44 C -1.44,0.645 -0.796,0 0,0"
           style="fill:#3c687a;fill-opacity:1;fill-rule:nonzero;stroke:none"
           id="path991" /></g><g
         transform="translate(-0.7197,12.9588)"
         id="g997"><path
           d="m 0,0 c 0.795,0 1.439,0.646 1.439,1.441 0,0.795 -0.644,1.44 -1.439,1.44 -0.796,0 -1.44,-0.645 -1.44,-1.44 C -1.44,0.646 -0.796,0 0,0"
           style="fill:#3c687a;fill-opacity:1;fill-rule:nonzero;stroke:none"
           id="path995" /></g><g
         transform="translate(28.08,27.3611)"
         id="g1001"><path
           d="m 0,0 c 0.795,0 1.439,0.645 1.439,1.439 0,0.795 -0.644,1.44 -1.439,1.44 -0.796,0 -1.44,-0.645 -1.44,-1.44 C -1.44,0.645 -0.796,0 0,0"
           style="fill:#3c687a;fill-opacity:1;fill-rule:nonzero;stroke:none"
           id="path999" /></g><g
         transform="translate(13.6797,27.3611)"
         id="g1005"><path
           d="m 0,0 c 0.795,0 1.44,0.645 1.44,1.439 0,0.795 -0.645,1.44 -1.44,1.44 -0.796,0 -1.439,-0.645 -1.439,-1.44 C -1.439,0.645 -0.796,0 0,0"
           style="fill:#3c687a;fill-opacity:1;fill-rule:nonzero;stroke:none"
           id="path1003" /></g><g
         transform="translate(-0.7197,27.3611)"
         id="g1009"><path
           d="m 0,0 c 0.795,0 1.439,0.645 1.439,1.439 0,0.795 -0.644,1.44 -1.439,1.44 -0.796,0 -1.44,-0.645 -1.44,-1.44 C -1.44,0.645 -0.796,0 0,0"
           style="fill:#3c687a;fill-opacity:1;fill-rule:nonzero;stroke:none"
           id="path1007" /></g></pattern><pattern
       patternTransform="translate(-970.8952,650)"
       patternUnits="userSpaceOnUse"
       x="0"
       y="0"
       width="28.7998"
       height="28.8008"
       id="pattern1073"><path
         d="m 56.879,0.001 -28.799,0 0,28.799 28.799,0 0,-28.799 z"
         style="fill:#375f73;fill-opacity:1;fill-rule:nonzero;stroke:none"
         id="path1017" /><path
         d="m 28.08,0.001 -28.799,0 0,28.799 28.799,0 0,-28.799 z"
         style="fill:#375f73;fill-opacity:1;fill-rule:nonzero;stroke:none"
         id="path1019" /><g
         transform="translate(28.08,-1.4396)"
         id="g1023"><path
           d="m 0,0 c 0.795,0 1.439,0.645 1.439,1.439 0,0.795 -0.644,1.44 -1.439,1.44 -0.796,0 -1.44,-0.645 -1.44,-1.44 C -1.44,0.645 -0.796,0 0,0"
           style="fill:#3c687a;fill-opacity:1;fill-rule:nonzero;stroke:none"
           id="path1021" /></g><g
         transform="translate(13.6797,-1.4396)"
         id="g1027"><path
           d="m 0,0 c 0.795,0 1.44,0.645 1.44,1.439 0,0.795 -0.645,1.44 -1.44,1.44 -0.796,0 -1.439,-0.645 -1.439,-1.44 C -1.439,0.645 -0.796,0 0,0"
           style="fill:#3c687a;fill-opacity:1;fill-rule:nonzero;stroke:none"
           id="path1025" /></g><g
         transform="translate(28.08,12.9588)"
         id="g1031"><path
           d="m 0,0 c 0.795,0 1.439,0.646 1.439,1.441 0,0.795 -0.644,1.44 -1.439,1.44 -0.796,0 -1.44,-0.645 -1.44,-1.44 C -1.44,0.646 -0.796,0 0,0"
           style="fill:#3c687a;fill-opacity:1;fill-rule:nonzero;stroke:none"
           id="path1029" /></g><g
         transform="translate(13.6797,12.9588)"
         id="g1035"><path
           d="m 0,0 c 0.795,0 1.44,0.646 1.44,1.441 0,0.795 -0.645,1.44 -1.44,1.44 -0.796,0 -1.439,-0.645 -1.439,-1.44 C -1.439,0.646 -0.796,0 0,0"
           style="fill:#3c687a;fill-opacity:1;fill-rule:nonzero;stroke:none"
           id="path1033" /></g><g
         transform="translate(6.4795,5.7596)"
         id="g1039"><path
           d="M 0,0 C 0.795,0 1.44,0.645 1.44,1.439 1.44,2.236 0.795,2.881 0,2.881 -0.796,2.881 -1.439,2.236 -1.439,1.439 -1.439,0.645 -0.796,0 0,0"
           style="fill:#3c687a;fill-opacity:1;fill-rule:nonzero;stroke:none"
           id="path1037" /></g><g
         transform="translate(20.8799,5.7596)"
         id="g1043"><path
           d="M 0,0 C 0.795,0 1.44,0.645 1.44,1.439 1.44,2.236 0.795,2.881 0,2.881 -0.796,2.881 -1.44,2.236 -1.44,1.439 -1.44,0.645 -0.796,0 0,0"
           style="fill:#3c687a;fill-opacity:1;fill-rule:nonzero;stroke:none"
           id="path1041" /></g><g
         transform="translate(6.4795,20.16)"
         id="g1047"><path
           d="M 0,0 C 0.795,0 1.44,0.645 1.44,1.439 1.44,2.236 0.795,2.881 0,2.881 -0.796,2.881 -1.439,2.236 -1.439,1.439 -1.439,0.645 -0.796,0 0,0"
           style="fill:#3c687a;fill-opacity:1;fill-rule:nonzero;stroke:none"
           id="path1045" /></g><g
         transform="translate(20.8799,20.16)"
         id="g1051"><path
           d="M 0,0 C 0.795,0 1.44,0.645 1.44,1.439 1.44,2.236 0.795,2.881 0,2.881 -0.796,2.881 -1.44,2.236 -1.44,1.439 -1.44,0.645 -0.796,0 0,0"
           style="fill:#3c687a;fill-opacity:1;fill-rule:nonzero;stroke:none"
           id="path1049" /></g><g
         transform="translate(-0.7197,-1.4396)"
         id="g1055"><path
           d="m 0,0 c 0.795,0 1.439,0.645 1.439,1.439 0,0.795 -0.644,1.44 -1.439,1.44 -0.796,0 -1.44,-0.645 -1.44,-1.44 C -1.44,0.645 -0.796,0 0,0"
           style="fill:#3c687a;fill-opacity:1;fill-rule:nonzero;stroke:none"
           id="path1053" /></g><g
         transform="translate(-0.7197,12.9588)"
         id="g1059"><path
           d="m 0,0 c 0.795,0 1.439,0.646 1.439,1.441 0,0.795 -0.644,1.44 -1.439,1.44 -0.796,0 -1.44,-0.645 -1.44,-1.44 C -1.44,0.646 -0.796,0 0,0"
           style="fill:#3c687a;fill-opacity:1;fill-rule:nonzero;stroke:none"
           id="path1057" /></g><g
         transform="translate(28.08,27.3611)"
         id="g1063"><path
           d="m 0,0 c 0.795,0 1.439,0.645 1.439,1.439 0,0.795 -0.644,1.44 -1.439,1.44 -0.796,0 -1.44,-0.645 -1.44,-1.44 C -1.44,0.645 -0.796,0 0,0"
           style="fill:#3c687a;fill-opacity:1;fill-rule:nonzero;stroke:none"
           id="path1061" /></g><g
         transform="translate(13.6797,27.3611)"
         id="g1067"><path
           d="m 0,0 c 0.795,0 1.44,0.645 1.44,1.439 0,0.795 -0.645,1.44 -1.44,1.44 -0.796,0 -1.439,-0.645 -1.439,-1.44 C -1.439,0.645 -0.796,0 0,0"
           style="fill:#3c687a;fill-opacity:1;fill-rule:nonzero;stroke:none"
           id="path1065" /></g><g
         transform="translate(-0.7197,27.3611)"
         id="g1071"><path
           d="m 0,0 c 0.795,0 1.439,0.645 1.439,1.439 0,0.795 -0.644,1.44 -1.439,1.44 -0.796,0 -1.44,-0.645 -1.44,-1.44 C -1.44,0.645 -0.796,0 0,0"
           style="fill:#3c687a;fill-opacity:1;fill-rule:nonzero;stroke:none"
           id="path1069" /></g></pattern><clipPath
       clipPathUnits="userSpaceOnUse"
       id="clipPath1083"><path
         d="M 0,500 H 500 V 0 H 0 Z"
         id="path1081"
         inkscape:connector-curvature="0" /></clipPath><clipPath
       clipPathUnits="userSpaceOnUse"
       id="clipPath1815"><path
         d="M 0,500 H 500 V 0 H 0 Z"
         id="path1813"
         inkscape:connector-curvature="0" /></clipPath><clipPath
       clipPathUnits="userSpaceOnUse"
       id="clipPath2163"><path
         d="m 174.324,434.913 h 38.292 v -39.71 h -38.292 z"
         id="path2161"
         inkscape:connector-curvature="0" /></clipPath><clipPath
       clipPathUnits="userSpaceOnUse"
       id="clipPath2167"><path
         d="m 179.633,416.715 h 32.983 v -21.512 h -32.983 z"
         id="path2165"
         inkscape:connector-curvature="0" /></clipPath><clipPath
       clipPathUnits="userSpaceOnUse"
       id="clipPath2171"><path
         d="m 174.358,422.783 h 38.241 v -24.554 h -38.241 z"
         id="path2169"
         inkscape:connector-curvature="0" /></clipPath><clipPath
       clipPathUnits="userSpaceOnUse"
       id="clipPath2175"><path
         d="m 174.341,428.844 h 38.241 v -24.547 h -38.241 z"
         id="path2173"
         inkscape:connector-curvature="0" /></clipPath><clipPath
       clipPathUnits="userSpaceOnUse"
       id="clipPath2179"><path
         d="m 174.324,434.913 h 38.241 v -24.554 h -38.241 z"
         id="path2177"
         inkscape:connector-curvature="0" /></clipPath><clipPath
       clipPathUnits="userSpaceOnUse"
       id="clipPath2311"><path
         d="M 70.0506,283.533 H 108.343 V 243.824 H 70.0506 Z"
         id="path2309"
         inkscape:connector-curvature="0" /></clipPath><clipPath
       clipPathUnits="userSpaceOnUse"
       id="clipPath2367"><path
         d="m 353.827,433.218 h 35.265 v -36.57 h -35.265 z"
         id="path2365"
         inkscape:connector-curvature="0" /></clipPath><clipPath
       clipPathUnits="userSpaceOnUse"
       id="clipPath2623"><path
         d="M 0,500 H 500 V 0 H 0 Z"
         id="path2621"
         inkscape:connector-curvature="0" /></clipPath></defs><sodipodi:namedview
     pagecolor="#ffffff"
     bordercolor="#666666"
     borderopacity="1"
     objecttolerance="10"
     gridtolerance="10"
     guidetolerance="10"
     inkscape:pageopacity="0"
     inkscape:pageshadow="2"
     inkscape:window-width="2517"
     inkscape:window-height="1408"
     id="namedview887"
     showgrid="false"
     fit-margin-top="0"
     fit-margin-left="0"
     fit-margin-right="0"
     fit-margin-bottom="0"
     inkscape:zoom="1.2876414"
     inkscape:cx="299.0327"
     inkscape:cy="95.747998"
     inkscape:window-x="43"
     inkscape:window-y="0"
     inkscape:window-maximized="1"
     inkscape:current-layer="g893" /><g
     id="g893"
     inkscape:groupmode="layer"
     inkscape:label="257327-P4M08A-929"
     transform="matrix(1.3333333,0,0,-1.3333333,-138.2521,595.08379)"><text
       transform="matrix(1,0,0,-1,157.1904,99.5781)"
       style="font-variant:normal;font-weight:normal;font-stretch:normal;font-size:32.61339951px;font-family:'Bebas Neue';-inkscape-font-specification:BebasNeue;writing-mode:lr-tb;fill:#ffffff;fill-opacity:1;fill-rule:nonzero;stroke:none"
       id="text1803"><tspan
         x="0 18.361343 30.363075 43.604115 49.800663 63.726585 77.000237"
         y="0"
         sodipodi:role="line"
         id="tspan1801">Webinar</tspan></text>
<text
       transform="matrix(1,0,0,-1,157.1904,68.008329)"
       style="font-variant:normal;font-weight:300;font-stretch:normal;font-size:32.61339951px;font-family:'Bebas Neue Light';-inkscape-font-specification:BebasNeueLight;writing-mode:lr-tb;fill:#ffffff;fill-opacity:1;fill-rule:nonzero;stroke:none"
       id="text1807"><tspan
         x="0 12.066958 24.329596 36.657463 48.724419 59.976044 71.68425"
         y="0"
         sodipodi:role="line"
         id="tspan1805">Concept</tspan></text>
<g
       id="g4458"><g
         transform="translate(210.2017,233.1499)"
         id="g1817"><path
           inkscape:connector-curvature="0"
           id="path1819"
           style="fill:#2a4959;fill-opacity:1;fill-rule:nonzero;stroke:none"
           d="m 0,0 c 2.454,-1.417 2.487,-3.709 0.049,-5.126 l -27.353,-15.896 c -2.418,-1.405 -6.395,-1.405 -8.849,0.012 l -27.512,15.884 c -2.454,1.417 -2.447,3.709 -0.029,5.114 l 27.353,15.896 c 2.438,1.417 6.375,1.417 8.829,0 z" /></g><g
         transform="translate(210.2504,228.0242)"
         id="g1821"><path
           inkscape:connector-curvature="0"
           id="path1823"
           style="fill:#0e3044;fill-opacity:1;fill-rule:nonzero;stroke:none"
           d="m 0,0 -27.353,-15.896 c -1.213,-0.705 -2.819,-1.054 -4.428,-1.05 -1.598,0.004 -3.199,0.356 -4.421,1.062 L -63.714,0 c -1.232,0.711 -1.844,1.643 -1.841,2.573 l -0.008,-2.547 c -0.002,-0.93 0.61,-1.862 1.842,-2.573 l 27.512,-15.884 c 1.224,-0.707 2.828,-1.06 4.428,-1.063 1.606,-0.003 3.209,0.347 4.421,1.051 l 27.353,15.896 c 1.206,0.701 1.807,1.616 1.81,2.533 L 1.81,2.534 C 1.808,1.616 1.206,0.701 0,0" /></g><g
         transform="translate(167.9958,223.4544)"
         id="g1825"><path
           inkscape:connector-curvature="0"
           id="path1827"
           style="fill:#0c2839;fill-opacity:1;fill-rule:nonzero;stroke:none"
           d="m 0,0 -4.405,2.56 -0.051,18.11 4.405,-2.559 z" /></g><g
         transform="translate(167.9444,241.5649)"
         id="g1829"><path
           inkscape:connector-curvature="0"
           id="path1831"
           style="fill:#113a52;fill-opacity:1;fill-rule:nonzero;stroke:none"
           d="m 0,0 -4.405,2.56 20.809,12.013 4.404,-2.559 z" /></g><g
         transform="translate(188.7529,253.5787)"
         id="g1833"><path
           inkscape:connector-curvature="0"
           id="path1835"
           style="fill:#33566b;fill-opacity:1;fill-rule:nonzero;stroke:none"
           d="m 0,0 0.051,-18.111 -20.808,-12.013 -0.051,18.11 z" /></g><g
         transform="translate(108.2983,212.2445)"
         id="g1837"><path
           inkscape:connector-curvature="0"
           id="path1839"
           style="fill:#0e3044;fill-opacity:1;fill-rule:nonzero;stroke:none"
           d="m 0,0 -0.205,109.779 -4.404,2.56 L -4.405,2.56 c 0.004,-1.404 0.502,-2.392 1.302,-2.856 l 4.404,-2.56 C 0.502,-2.391 0.004,-1.404 0,0" /></g><g
         transform="translate(235.1311,404.0503)"
         id="g1841"><path
           inkscape:connector-curvature="0"
           id="path1843"
           style="fill:#33566b;fill-opacity:1;fill-rule:nonzero;stroke:none"
           d="m 0,0 c -0.81,0.471 -1.934,0.402 -3.174,-0.314 l -123.853,-71.507 c -2.434,-1.405 -4.423,-4.826 -4.415,-7.646 l 4.405,-2.56 c -0.008,2.82 1.98,6.241 4.414,7.647 L 1.23,-2.874 c 1.24,0.716 2.365,0.785 3.175,0.314 z" /></g><g
         transform="translate(236.3614,401.1766)"
         id="g1845"><path
           inkscape:connector-curvature="0"
           id="path1847"
           style="fill:#4d7589;fill-opacity:1;fill-rule:nonzero;stroke:none"
           d="M 0,0 C 2.454,1.417 4.455,0.299 4.463,-2.521 L 4.668,-112.3 c 0.008,-2.82 -1.98,-6.264 -4.434,-7.681 l -123.854,-71.506 c -2.434,-1.406 -4.435,-0.265 -4.443,2.555 l -0.205,109.779 c -0.008,2.82 1.981,6.241 4.415,7.646 z" /></g><g
         transform="translate(236.5272,353.2038)"
         id="g1849"><path
           inkscape:connector-curvature="0"
           id="path1851"
           style="fill:#5fc5bd;fill-opacity:1;fill-rule:nonzero;stroke:none"
           d="m 0,0 0.183,-64.622 -65.315,-37.71 c 8.676,10.467 17.625,22.2 26.569,35.285 C -21.744,-42.447 -9.182,-19.273 0,0" /></g><g
         transform="translate(236.4248,389.3182)"
         id="g1853"><path
           inkscape:connector-curvature="0"
           id="path1855"
           style="fill:#6fcec5;fill-opacity:1;fill-rule:nonzero;stroke:none"
           d="M 0,0 0.031,-10.834 C -3.215,-15.923 -6.798,-21.342 -10.725,-27.031 -6.054,-16.224 -2.537,-7.033 0,0" /></g><g
         transform="translate(236.4556,378.4847)"
         id="g1857"><path
           inkscape:connector-curvature="0"
           id="path1859"
           style="fill:#5bc3b3;fill-opacity:1;fill-rule:nonzero;stroke:none"
           d="m 0,0 0.029,-10.122 c -6.203,-9.926 -14.043,-21.422 -23.59,-33.413 4.99,9.883 9.238,19.076 12.806,27.337 C -6.829,-10.509 -3.246,-5.09 0,0" /></g><g
         transform="translate(236.4843,368.3628)"
         id="g1861"><path
           inkscape:connector-curvature="0"
           id="path1863"
           style="fill:#04ad9d;fill-opacity:1;fill-rule:nonzero;stroke:none"
           d="m 0,0 0.043,-15.159 c -9.182,-19.273 -21.744,-42.447 -38.563,-67.048 -8.944,-13.084 -17.893,-24.817 -26.569,-35.284 l -22.655,-13.079 c 3.353,3.947 6.726,8.065 10.098,12.325 23.751,30.013 41.334,59.657 54.056,84.832 C -14.042,-21.422 -6.203,-9.926 0,0" /></g><g
         transform="translate(225.7001,362.2871)"
         id="g1865"><path
           inkscape:connector-curvature="0"
           id="path1867"
           style="fill:#6fcec5;fill-opacity:1;fill-rule:nonzero;stroke:none"
           d="m 0,0 c -3.568,-8.262 -7.816,-17.455 -12.806,-27.338 -6.566,-8.258 -13.938,-16.736 -22.138,-25.09 -14.221,-14.475 -28.044,-25.625 -40.889,-34.237 9.406,8.369 19.27,17.914 29.414,28.784 C -27.589,-37.695 -12.171,-17.609 0,0" /></g><g
         transform="translate(212.8945,334.9495)"
         id="g1869"><path
           inkscape:connector-curvature="0"
           id="path1871"
           style="fill:#5bc3b3;fill-opacity:1;fill-rule:nonzero;stroke:none"
           d="m 0,0 c -12.722,-25.174 -30.305,-54.819 -54.056,-84.832 -3.373,-4.26 -6.745,-8.378 -10.098,-12.325 l -35.847,-20.697 -0.083,29.306 c 11.014,7.603 23.56,17.207 37.057,29.221 12.845,8.612 26.668,19.761 40.889,34.237 C -13.939,-16.736 -6.566,-8.258 0,0" /></g><g
         transform="translate(112.7835,255.7885)"
         id="g1873"><path
           inkscape:connector-curvature="0"
           id="path1875"
           style="fill:#04ad9d;fill-opacity:1;fill-rule:nonzero;stroke:none"
           d="m 0,0 c 1.382,0.555 2.794,1.143 4.236,1.766 6.169,2.665 12.876,5.97 20,10.069 0.093,0.053 0.185,0.106 0.278,0.159 0.05,0.029 0.102,0.059 0.152,0.089 3.094,1.789 6.265,3.728 9.505,5.83 0.965,0.626 1.936,1.266 2.913,1.921 C 23.587,7.82 11.041,-1.784 0.027,-9.386 Z" /></g><g
         transform="translate(236.4065,395.7789)"
         id="g1877"><path
           inkscape:connector-curvature="0"
           id="path1879"
           style="fill:#00c3b6;fill-opacity:1;fill-rule:nonzero;stroke:none"
           d="m 0,0 0.018,-6.461 c -2.537,-7.033 -6.054,-16.224 -10.724,-27.031 -12.172,-17.609 -27.59,-37.694 -46.42,-57.881 -10.143,-10.87 -20.007,-20.414 -29.413,-28.783 -0.977,-0.655 -1.948,-1.295 -2.913,-1.921 -3.239,-2.102 -6.411,-4.041 -9.505,-5.831 -7.554,-4.346 -14.261,-7.652 -20.43,-10.316 -1.442,-0.623 -2.854,-1.211 -4.236,-1.766 l -0.194,68.504 z" /></g><g
         transform="translate(112.7136,324.3695)"
         id="g1881"><path
           inkscape:connector-curvature="0"
           id="path1883"
           style="fill:#89d1cb;fill-opacity:1;fill-rule:nonzero;stroke:none"
           d="m 0,0 0.011,-6.158 123.685,71.41 -0.011,6.157 z" /></g><g
         transform="translate(121.3428,224.8464)"
         id="g1885"><path
           inkscape:connector-curvature="0"
           id="path1887"
           style="fill:#0c2839;fill-opacity:1;fill-rule:nonzero;stroke:none"
           d="m 0,0 c -1.816,-1.048 -3.267,-3.585 -3.261,-5.649 0.006,-2.086 1.467,-2.918 3.282,-1.87 1.796,1.036 3.248,3.551 3.242,5.637 C 3.257,0.181 1.796,1.037 0,0" /></g><g
         transform="translate(121.343,223.8105)"
         id="g1889"><path
           inkscape:connector-curvature="0"
           id="path1891"
           style="fill:#d84774;fill-opacity:1;fill-rule:nonzero;stroke:none"
           d="m 0,0 c -1.316,-0.76 -2.368,-2.599 -2.364,-4.095 0.004,-1.512 1.063,-2.115 2.379,-1.356 1.302,0.752 2.354,2.574 2.35,4.087 C 2.361,0.131 1.302,0.751 0,0" /></g><g
         transform="translate(137.5518,325.076)"
         id="g1893"><path
           inkscape:connector-curvature="0"
           id="path1895"
           style="fill:#f24c88;fill-opacity:1;fill-rule:nonzero;stroke:none"
           d="M 0,0 C 0.396,0.228 0.716,0.045 0.718,-0.409 0.719,-0.863 0.4,-1.416 0.005,-1.644 -0.397,-1.876 -0.718,-1.693 -0.719,-1.238 -0.72,-0.784 -0.401,-0.232 0,0" /></g><g
         transform="translate(140.4773,326.765)"
         id="g1897"><path
           inkscape:connector-curvature="0"
           id="path1899"
           style="fill:#3ebfb4;fill-opacity:1;fill-rule:nonzero;stroke:none"
           d="M 0,0 C 0.395,0.228 0.716,0.045 0.718,-0.409 0.719,-0.863 0.4,-1.416 0.005,-1.644 -0.391,-1.872 -0.712,-1.69 -0.713,-1.235 -0.714,-0.781 -0.396,-0.228 0,0" /></g><g
         transform="translate(143.3038,328.3969)"
         id="g1901"><path
           inkscape:connector-curvature="0"
           id="path1903"
           style="fill:#f79663;fill-opacity:1;fill-rule:nonzero;stroke:none"
           d="M 0,0 C 0.396,0.228 0.716,0.045 0.718,-0.409 0.719,-0.863 0.4,-1.416 0.005,-1.644 -0.391,-1.872 -0.712,-1.689 -0.713,-1.235 -0.714,-0.781 -0.395,-0.228 0,0" /></g><g
         transform="translate(140.4819,325.121)"
         id="g1905"><path
           inkscape:connector-curvature="0"
           id="path1907"
           style="fill:#f1f2f2;fill-opacity:1;fill-rule:nonzero;stroke:none"
           d="M 0,0 C 0.395,0.228 0.714,0.781 0.713,1.235 0.712,1.689 0.391,1.872 -0.005,1.644 -0.4,1.416 -0.719,0.863 -0.718,0.409 -0.716,-0.046 -0.396,-0.228 0,0 M 2.826,1.632 C 3.222,1.86 3.541,2.412 3.54,2.867 3.538,3.321 3.217,3.504 2.822,3.276 2.426,3.048 2.107,2.495 2.109,2.041 2.11,1.586 2.431,1.404 2.826,1.632 m -5.752,-3.321 c 0.396,0.228 0.715,0.781 0.714,1.235 -0.002,0.454 -0.323,0.637 -0.718,0.409 -0.401,-0.232 -0.72,-0.784 -0.719,-1.238 10e-4,-0.455 0.322,-0.638 0.723,-0.406 m 64.054,40.107 c 0.617,0.356 1.118,0.07 1.12,-0.638 l 0.01,-3.488 -67.209,-38.804 -0.009,3.489 c -0.002,0.708 0.496,1.572 1.118,1.931 z" /></g><g
         transform="translate(198.9856,292.6689)"
         id="g1909"><path
           inkscape:connector-curvature="0"
           id="path1911"
           style="fill:#bcbec0;fill-opacity:1;fill-rule:nonzero;stroke:none"
           d="m 0,0 0.002,-0.762 -37.018,-21.372 -0.002,0.761 z" /></g><g
         transform="translate(198.9804,294.5267)"
         id="g1913"><path
           inkscape:connector-curvature="0"
           id="path1915"
           style="fill:#bcbec0;fill-opacity:1;fill-rule:nonzero;stroke:none"
           d="m 0,0 0.002,-0.762 -37.018,-21.372 -0.002,0.761 z" /></g><g
         transform="translate(161.9725,269.4385)"
         id="g1917"><path
           inkscape:connector-curvature="0"
           id="path1919"
           style="fill:#f1f2f2;fill-opacity:1;fill-rule:nonzero;stroke:none"
           d="M 0,0 0.002,-0.762 16.868,8.976 16.866,9.738 0,0 M -0.005,1.858 -0.003,1.096 37.015,22.469 37.013,23.23 -0.005,1.858 M -0.011,3.716 -0.008,2.954 37.01,24.326 37.008,25.088 -0.011,3.716 M -0.026,9.182 -0.02,7.044 22.924,20.29 22.918,22.429 -0.026,9.182 m -21.24,-12.262 0.033,-11.696 15.424,8.905 -0.033,11.696 -15.424,-8.905 m -4.964,-20.297 -0.063,22.114 67.209,38.803 0.067,-23.444 c 0.002,-0.715 -0.497,-1.579 -1.113,-1.935 l -64.97,-37.51 c -0.622,-0.359 -1.124,-0.073 -1.126,0.642 z" /></g><g
         transform="translate(178.8388,279.1762)"
         id="g1921"><path
           inkscape:connector-curvature="0"
           id="path1923"
           style="fill:#bcbec0;fill-opacity:1;fill-rule:nonzero;stroke:none"
           d="m 0,0 0.002,-0.762 -16.866,-9.738 -0.002,0.762 z" /></g><g
         transform="translate(184.8904,291.8675)"
         id="g1925"><path
           inkscape:connector-curvature="0"
           id="path1927"
           style="fill:#bcbec0;fill-opacity:1;fill-rule:nonzero;stroke:none"
           d="m 0,0 0.006,-2.139 -22.944,-13.246 -0.006,2.138 z" /></g><g
         transform="translate(199.6053,308.3623)"
         id="g1929"><path
           inkscape:connector-curvature="0"
           id="path1931"
           style="fill:#939598;fill-opacity:1;fill-rule:nonzero;stroke:none"
           d="m 0,0 0.003,-1.143 -50.125,-28.94 c 0.054,0.21 0.084,0.418 0.083,0.618 0,0.201 -0.031,0.377 -0.088,0.524 z" /></g><g
         transform="translate(156.1306,275.263)"
         id="g1933"><path
           inkscape:connector-curvature="0"
           id="path1935"
           style="fill:#bcbec0;fill-opacity:1;fill-rule:nonzero;stroke:none"
           d="M 0,0 0.033,-11.695 -15.391,-20.6 -15.424,-8.905 Z" /></g><g
         transform="translate(148.0846,279.7481)"
         id="g1937"><path
           inkscape:connector-curvature="0"
           id="path1939"
           style="fill:#d84774;fill-opacity:1;fill-rule:nonzero;stroke:none"
           d="M 0,0 C 0.64,0.369 1.188,0.214 1.394,-0.326 1.45,-0.474 1.482,-0.65 1.482,-0.851 1.483,-1.05 1.453,-1.259 1.398,-1.469 1.196,-2.244 0.65,-3.032 0.01,-3.402 -0.81,-3.875 -1.476,-3.496 -1.478,-2.56 -1.481,-1.618 -0.82,-0.473 0,0" /></g><g
         transform="translate(169.2265,308.0465)"
         id="g1941"><path
           inkscape:connector-curvature="0"
           id="path1943"
           style="fill:#27253f;fill-opacity:1;fill-rule:nonzero;stroke:none"
           d="M 0,0 C 4.06,2.344 7.341,8.027 7.327,12.692 7.314,17.356 4.012,19.238 -0.048,16.894 -4.107,14.551 -7.388,8.868 -7.375,4.203 -7.362,-0.462 -4.06,-2.344 0,0 M -33.695,12.563 33.514,51.366 33.647,4.338 -33.562,-34.465 Z" /></g><g
         transform="translate(139.0911,271.1753)"
         id="g1945"><path
           inkscape:connector-curvature="0"
           id="path1947"
           style="fill:#bcbec0;fill-opacity:1;fill-rule:nonzero;stroke:none"
           d="M 0,0 2.519,3.128 -0.009,3.348 0,0 M 60.517,36.044 60.514,37.187 10.387,8.246 C 10.181,8.787 9.633,8.942 8.993,8.573 8.173,8.099 7.513,6.955 7.515,6.012 7.518,5.077 8.183,4.698 9.003,5.171 c 0.641,0.37 1.187,1.158 1.389,1.933 l 50.125,28.94 M -3.426,2.406 63.782,41.209 63.798,35.803 -3.411,-3 Z" /></g><g
         transform="translate(167.233,318.7169)"
         id="g1949"><path
           inkscape:connector-curvature="0"
           id="path1951"
           style="fill:#feca7a;fill-opacity:1;fill-rule:nonzero;stroke:none"
           d="M 0,0 5.064,-0.437 0.019,-6.703 Z" /></g><g
         transform="translate(167.252,312.0139)"
         id="g1953"><path
           inkscape:connector-curvature="0"
           id="path1955"
           style="fill:#f24c88;fill-opacity:1;fill-rule:nonzero;stroke:none"
           d="M 0,0 5.045,6.266 -0.019,6.703 0,0 M 1.927,12.927 C 5.986,15.271 9.289,13.389 9.302,8.724 9.315,4.059 6.034,-1.624 1.974,-3.967 -2.085,-6.311 -5.388,-4.429 -5.401,0.236 -5.414,4.9 -2.133,10.583 1.927,12.927" /></g><g
         transform="translate(139.0816,274.5234)"
         id="g1957"><path
           inkscape:connector-curvature="0"
           id="path1959"
           style="fill:#f1f2f2;fill-opacity:1;fill-rule:nonzero;stroke:none"
           d="M 0,0 2.529,-0.22 0.009,-3.348 Z" /></g><g
         transform="translate(168.6936,307.2538)"
         id="g1961"><path
           inkscape:connector-curvature="0"
           id="path1963"
           style="fill:#f24c88;fill-opacity:1;fill-rule:nonzero;stroke:none"
           d="M 0,0 -3.341,1.942 5.4,12.807 8.742,10.865 Z" /></g><g
         transform="translate(177.7691,332.5108)"
         id="g1965"><path
           inkscape:connector-curvature="0"
           id="path1967"
           style="fill:#f2769c;fill-opacity:1;fill-rule:nonzero;stroke:none"
           d="m 0,0 3.341,-1.942 c -2.319,1.348 -5.53,1.158 -9.074,-0.888 l -3.342,1.942 C -5.531,1.158 -2.319,1.348 0,0" /></g><g
         transform="translate(163.0443,299.4825)"
         id="g1969"><path
           inkscape:connector-curvature="0"
           id="path1971"
           style="fill:#df477f;fill-opacity:1;fill-rule:nonzero;stroke:none"
           d="m 0,0 -3.341,1.942 c -2.29,1.33 -3.71,4.159 -3.721,8.18 -0.023,8.092 5.669,17.952 12.712,22.018 L 8.992,30.198 C 1.949,26.132 -3.744,16.272 -3.721,8.18 -3.709,4.159 -2.29,1.331 0,0" /></g><g
         transform="translate(168.6936,307.2538)"
         id="g1973"><path
           inkscape:connector-curvature="0"
           id="path1975"
           style="fill:#f24c88;fill-opacity:1;fill-rule:nonzero;stroke:none"
           d="M 0,0 8.742,10.865 -0.033,11.629 0,0 m 3.342,22.427 c 7.043,4.066 12.773,0.801 12.796,-7.292 C 16.161,7.043 10.468,-2.817 3.426,-6.883 -3.617,-10.949 -9.347,-7.684 -9.37,0.409 -9.393,8.501 -3.701,18.361 3.342,22.427" /></g><g
         transform="translate(171.7306,317.4)"
         id="g1977"><path
           inkscape:connector-curvature="0"
           id="path1979"
           style="fill:#feca7a;fill-opacity:1;fill-rule:nonzero;stroke:none"
           d="M 0,0 9.086,-0.791 0.034,-12.041 Z" /></g><g
         transform="translate(171.7306,317.4)"
         id="g1981"><path
           inkscape:connector-curvature="0"
           id="path1983"
           style="fill:#ffdaa2;fill-opacity:1;fill-rule:nonzero;stroke:none"
           d="M 0,0 -3.46,2.011 5.626,1.22 9.086,-0.791 Z" /></g><g
         transform="translate(171.7648,305.3586)"
         id="g1985"><path
           inkscape:connector-curvature="0"
           id="path1987"
           style="fill:#e0b46d;fill-opacity:1;fill-rule:nonzero;stroke:none"
           d="m 0,0 -3.46,2.011 -0.034,12.041 3.46,-2.011 z" /></g><g
         transform="translate(272.615,300.7164)"
         id="g1989"><path
           inkscape:connector-curvature="0"
           id="path1991"
           style="fill:#eed7ba;fill-opacity:1;fill-rule:nonzero;stroke:none"
           d="m 0,0 c -1.986,-4.426 -5.381,-4.811 -9.689,-5.348 -0.193,-0.025 -0.378,-0.016 -0.587,0.009 -0.025,0.008 -0.067,0.025 -0.092,0.033 -0.151,0.034 -0.294,0.076 -0.428,0.143 -0.025,0.008 -0.05,0.017 -0.1,0.025 -6.588,2.305 -24.392,12.455 -25.205,12.506 0,0 -2.958,-1.182 -4.123,-0.352 -1.165,0.829 -1.886,1.332 -2.699,1.399 -0.797,0.093 -3.831,-0.394 -4.652,-0.301 -0.159,0.016 -0.419,0.142 -0.738,0.343 h -0.008 v 0.009 c -0.327,0.544 4.895,1.911 4.895,1.911 v 0.394 c 0,0 -5.934,-0.972 -6.587,-0.905 -0.914,0.913 -1.38,1.611 -1.012,2.29 0,0 3.054,1.682 3.817,2.034 0.737,0.369 4.201,1.392 5.073,1.216 0.871,-0.143 8.658,-1.869 8.658,-1.869 l 22.673,-5.91 C -9.203,7.208 -7.938,6.605 -6.957,5.859 -6.513,5.524 -4.292,6.747 -3.73,6.806 -2.456,6.932 -0.847,6.529 -0.034,5.482 1.173,3.931 0.746,1.66 0,0" /></g><g
         transform="translate(226.297,313.4996)"
         id="g1993"><path
           inkscape:connector-curvature="0"
           id="path1995"
           style="fill:#e3c7aa;fill-opacity:1;fill-rule:nonzero;stroke:none"
           d="m 0,0 c -0.052,-0.786 2.305,-0.655 3.379,-0.681 1.074,-0.026 1.65,-1.283 2.698,-1.834 1.048,-0.55 3.798,-0.733 3.719,-1.178 -0.078,-0.446 -2.645,0 -3.719,0.366 C 5.003,-2.96 4.793,-1.414 3.536,-1.388 2.279,-1.362 0.262,-1.283 -0.131,-0.681 -0.524,-0.079 0,0 0,0" /></g><g
         transform="translate(229.9609,316.1322)"
         id="g1997"><path
           inkscape:connector-curvature="0"
           id="path1999"
           style="fill:#eed7ba;fill-opacity:1;fill-rule:nonzero;stroke:none"
           d="m 0,0 c 0,0 -4.019,0.039 -4.988,0.013 -0.969,-0.027 -4.276,0.08 -4.386,-0.76 -0.082,-0.627 2.93,-0.707 4.687,-0.785 1.757,-0.079 4.507,0.916 4.507,0.916 l 0.7,0.61 z" /></g><g
         transform="translate(229.8331,312.1114)"
         id="g2001"><path
           inkscape:connector-curvature="0"
           id="path2003"
           style="fill:#e3c7aa;fill-opacity:1;fill-rule:nonzero;stroke:none"
           d="M 0,0 C 0,0 -0.168,-1.229 -0.21,-2.2 -0.251,-3.172 -0.808,-2.921 -0.602,0.183 Z" /></g><g
         transform="translate(226.1661,313.0893)"
         id="g2005"><path
           inkscape:connector-curvature="0"
           id="path2007"
           style="fill:#e3c7aa;fill-opacity:1;fill-rule:nonzero;stroke:none"
           d="m 0,0 c 0,0 -4.605,-1.139 -4.576,-1.192 0.03,-0.054 0.204,-0.338 0.204,-0.338 l 4.887,1.146 z" /></g><g
         transform="translate(224.8047,314.5953)"
         id="g2009"><path
           inkscape:connector-curvature="0"
           id="path2011"
           style="fill:#e3c7aa;fill-opacity:1;fill-rule:nonzero;stroke:none"
           d="m 0,0 c 0,0 3.588,0.196 3.675,0 0.087,-0.196 -2.026,-0.179 -2.811,-0.179 -0.786,0 -1.315,-0.044 -1.315,-0.044 z" /></g><g
         transform="translate(229.2009,311.7467)"
         id="g2013"><path
           inkscape:connector-curvature="0"
           id="path2015"
           style="fill:#e3c7aa;fill-opacity:1;fill-rule:nonzero;stroke:none"
           d="m 0,0 -6.599,-1.165 0.332,-0.132 c 0,0 3.939,0.562 4.708,0.701 0.768,0.14 1.867,0.409 1.867,0.409 z" /></g><g
         transform="translate(228.0432,314.3722)"
         id="g2017"><path
           inkscape:connector-curvature="0"
           id="path2019"
           style="fill:#e3c7aa;fill-opacity:1;fill-rule:nonzero;stroke:none"
           d="M 0,0 C 0,0 1.886,0.463 2.2,0.463 2.515,0.463 4.68,0.297 4.767,0.31 4.854,0.324 2.602,0.917 2.008,0.795 1.414,0.673 0,0 0,0" /></g><g
         transform="translate(240.708,304.8481)"
         id="g2021"><path
           inkscape:connector-curvature="0"
           id="path2023"
           style="fill:#f9f8f7;fill-opacity:1;fill-rule:nonzero;stroke:none"
           d="m 0,0 -2.577,0.846 c 0,0 -1.609,2.972 -0.984,5.519 0.626,2.547 2.211,3.358 2.211,3.358 L 1.563,9.366 Z" /></g><g
         transform="translate(251.5468,312.8142)"
         id="g2025"><path
           inkscape:connector-curvature="0"
           id="path2027"
           style="fill:#445c66;fill-opacity:1;fill-rule:nonzero;stroke:none"
           d="m 0,0 c -3.75,1.604 -9.812,2.213 -9.812,2.213 0,0 -1.766,-0.609 -2.185,-4.409 -0.419,-3.799 -0.376,-4.866 0.52,-6.531 l 6.702,-3.116 z" /></g><g
         transform="translate(248.6229,336.4805)"
         id="g2029"><path
           inkscape:connector-curvature="0"
           id="path2031"
           style="fill:#e9e5d9;fill-opacity:1;fill-rule:nonzero;stroke:none"
           d="m 0,0 c 0,0 -2.071,-0.974 -2.47,-1.531 -0.398,-0.557 -0.437,-3.735 0.427,-4.286 0.865,-0.55 2.591,0.228 2.591,0.228" /></g><g
         transform="translate(247.3955,330.0918)"
         id="g2033"><path
           inkscape:connector-curvature="0"
           id="path2035"
           style="fill:#27253f;fill-opacity:1;fill-rule:nonzero;stroke:none"
           d="M 0,0 C -0.364,0 -0.722,0.068 -1.017,0.256 -1.368,0.48 -1.619,0.967 -1.762,1.704 -1.974,2.8 -1.925,4.548 -1.547,5.076 -1.113,5.681 0.707,6.558 1.068,6.728 L 1.388,6.049 C 0.563,5.662 -0.702,4.968 -0.937,4.64 -1.104,4.406 -1.248,2.997 -1.025,1.847 -0.883,1.11 -0.674,0.927 -0.614,0.889 -0.046,0.527 1.222,0.962 1.621,1.142 L 1.93,0.458 C 1.791,0.396 0.879,0 0,0" /></g><g
         transform="translate(271.6087,160.0457)"
         id="g2037"><path
           inkscape:connector-curvature="0"
           id="path2039"
           style="fill:#0c2839;fill-opacity:1;fill-rule:nonzero;stroke:none"
           d="m 0,0 c 0,0 -11.943,3.415 -14.504,2.135 -2.562,-1.281 -0.598,-6.233 4.952,-9.392 5.55,-3.16 8.55,-5.123 11.49,-5.892 2.939,-0.768 7.55,-0.854 8.233,2.049 0.683,2.903 0.342,6.404 -0.427,7.685 C 8.976,-2.135 0,0 0,0" /></g><g
         transform="translate(270.5419,160.8316)"
         id="g2041"><path
           inkscape:connector-curvature="0"
           id="path2043"
           style="fill:#e8c8a1;fill-opacity:1;fill-rule:nonzero;stroke:none"
           d="m 0,0 v -2.643 c 0,0 1.022,-3.76 5.332,-3.735 4.898,0.029 5.011,2.588 5.011,2.588 l -0.144,3.677" /></g><g
         transform="translate(254.6021,149.6656)"
         id="g2045"><path
           inkscape:connector-curvature="0"
           id="path2047"
           style="fill:#0c2839;fill-opacity:1;fill-rule:nonzero;stroke:none"
           d="m 0,0 c 0,0 -13.395,3.831 -16.268,2.394 -2.873,-1.436 -0.67,-6.991 5.554,-10.534 6.225,-3.543 9.59,-5.746 12.887,-6.608 3.297,-0.861 8.469,-0.957 9.235,2.299 0.766,3.256 0.383,7.182 -0.479,8.618 C 10.067,-2.394 0,0 0,0" /></g><g
         transform="translate(254.6021,151.1966)"
         id="g2049"><path
           inkscape:connector-curvature="0"
           id="path2051"
           style="fill:#e8c8a1;fill-opacity:1;fill-rule:nonzero;stroke:none"
           d="m 0,0 v -4.787 c 0,0 0.586,-3.16 5.279,-3.447 4.692,-0.288 5.65,2.873 5.65,2.873 v 3.711 l -7.087,1.077 z" /></g><g
         transform="translate(281.7359,247.6402)"
         id="g2053"><path
           inkscape:connector-curvature="0"
           id="path2055"
           style="fill:#405860;fill-opacity:1;fill-rule:nonzero;stroke:none"
           d="m 0,0 c 1.276,-6.117 -2.326,-13.193 -2.517,-15.875 -0.192,-2.681 1.779,-22.608 2.929,-36.773 1.149,-14.164 0.422,-39.885 0.422,-39.885 0,0 -2.044,-2.969 -6.588,-2.107 -4.544,0.862 -7.124,3.064 -7.124,3.064 0,0 -3.429,50.803 -4.387,56.357 -0.957,5.555 -2.612,27.772 -2.742,31.219 -0.131,3.448 17.39,16.552 20.007,4" /></g><g
         transform="translate(244.3169,241.6641)"
         id="g2057"><path
           inkscape:connector-curvature="0"
           id="path2059"
           style="fill:#445c66;fill-opacity:1;fill-rule:nonzero;stroke:none"
           d="m 0,0 c -0.339,-20.815 2.917,-42.841 3.3,-45.331 0.383,-2.49 3.364,-47.69 3.364,-47.69 0,0 4.344,-12.704 16.602,-6.096 0,0 -0.933,45.29 -1.161,52.315 -0.227,7.025 -1.363,21.581 -0.891,28.859 0.473,7.278 4.57,9.194 5.011,18.77 0,0 -1.601,8.81 -13.125,8.044 C 1.576,8.105 0,0 0,0" /></g><g
         transform="translate(240.229,294.8189)"
         id="g2061"><path
           inkscape:connector-curvature="0"
           id="path2063"
           style="fill:#3a4d57;fill-opacity:1;fill-rule:nonzero;stroke:none"
           d="m 0,0 c -1.37,8.319 3.135,12.908 13.215,18.818 4.166,2.441 19.68,13.071 27.293,3.591 7.613,-9.481 -0.431,-30.74 0,-42.807 0.431,-12.066 3.29,-31.298 3.29,-31.298 0,0 -4.87,-5.75 -18.947,-7.043 -14.078,-1.293 -24.118,1.902 -24.118,1.902 0,0 3.289,32.417 -0.733,56.837" /></g><g
         transform="translate(249.8532,342.3655)"
         id="g2065"><path
           inkscape:connector-curvature="0"
           id="path2067"
           style="fill:#eed7ba;fill-opacity:1;fill-rule:nonzero;stroke:none"
           d="m 0,0 c 0,0 -1.532,-5.65 -1.82,-6.799 -0.287,-1.149 -0.095,-2.777 0,-3.543 0.096,-0.767 -1.244,-2.873 -1.053,-3.831 0.192,-0.958 1.053,-6.703 2.873,-8.331 1.82,-1.628 5.171,-1.054 5.171,-1.054 0,0 -0.287,-5.075 0,-5.746 0.288,-0.67 8.14,-0.095 11.396,1.82 3.256,1.915 2.107,7.086 2.107,7.086 L 10.342,0 Z" /></g><g
         transform="translate(249.8477,342.3597)"
         id="g2069"><path
           inkscape:connector-curvature="0"
           id="path2071"
           style="fill:#27253f;fill-opacity:1;fill-rule:nonzero;stroke:none"
           d="m 0,0 c -0.105,0.1 -0.209,0.2 -0.312,0.302 -0.536,0.53 -0.829,1.224 -1.127,1.903 -0.603,1.375 -0.915,2.749 -1.086,4.225 0.138,-0.497 0.764,-0.836 1.152,-1.105 -0.024,0.756 0.389,1.405 0.631,2.099 0.28,0.804 0.596,1.633 0.851,2.43 0.161,-0.34 0.326,-0.837 0.623,-1.067 0.396,0.815 1.71,1.34 2.448,1.654 0.942,0.401 2.192,1.039 3.245,1.043 -0.005,-0.458 -0.277,-0.852 -0.349,-1.297 1.077,0.179 2.208,0.119 3.298,0.138 0.567,0.01 1.157,0.034 1.714,-0.097 -0.047,-0.401 -0.4,-0.939 -0.614,-1.294 0.455,-0.105 0.921,-0.172 1.36,-0.33 3.094,-1.117 6.256,-2.264 9.203,-3.69 0.57,-0.276 1.112,-0.601 1.642,-0.949 0.589,-0.388 1.418,-0.923 1.603,-1.661 0.574,-2.298 0,-4.309 0,-4.309 0,0 1.867,-3.16 1.58,-5.028 -0.288,-1.867 -7.183,-13.359 -7.183,-13.359 0,0 -4.375,-0.574 -5.922,0.718 -1.547,1.293 -2.984,6.321 -4.995,6.895 -2.011,0.575 -2.729,-3.16 -2.729,-3.16 l -1.293,1.006 c 0,0 0.719,4.165 -0.143,5.602 C 3.084,-8.477 2.61,-7.835 2.31,-7.454 2.101,-7.19 2.007,-6.855 2.049,-6.521 l 0.542,4.228 C 1.732,-1.529 0.831,-0.789 0,0" /></g><g
         transform="translate(225.1068,237.5981)"
         id="g2073"><path
           inkscape:connector-curvature="0"
           id="path2075"
           style="fill:#eed7ba;fill-opacity:1;fill-rule:nonzero;stroke:none"
           d="m 0,0 c 0.276,0.919 3.195,9.124 3.195,9.124 l 9.446,23.765 c 0.666,1.677 1.493,2.963 2.435,3.929 -0.546,9.019 1.783,24.928 1.783,24.928 0,0 8.583,5.924 11.336,-4.253 0,0 -0.973,-15.835 -1.268,-22.536 0.003,-0.008 0.007,-0.015 0.009,-0.022 l -0.041,-0.731 c -0.034,-0.83 -0.054,-1.481 -0.054,-1.849 0,-0.218 -0.034,-0.419 -0.087,-0.61 l -0.001,-0.028 c -0.015,-0.028 -0.032,-0.066 -0.046,-0.095 -0.055,-0.157 -0.125,-0.305 -0.213,-0.443 -0.015,-0.03 -0.025,-0.052 -0.04,-0.083 V 31.073 C 23.075,24.247 10.457,5.608 10.296,4.735 c 0,0 0.621,-3.172 -0.436,-4.321 C 8.803,-0.735 7.653,-0.919 7.47,-1.793 7.263,-2.643 7.378,-5.999 7.171,-6.872 6.987,-7.722 3.356,-11.17 2,-10.204 c 0,0 -1.15,3.148 -1.425,4.022 C 0.276,-5.332 -0.299,-0.919 0,0" /></g><g
         transform="translate(231.8754,230.0522)"
         id="g2077"><path
           inkscape:connector-curvature="0"
           id="path2079"
           style="fill:#e3c7aa;fill-opacity:1;fill-rule:nonzero;stroke:none"
           d="m 0,0 c -0.642,-0.319 -1.495,6.028 -1.495,6.028 -0.588,-0.142 0.602,-6.969 0.602,-6.969 z" /></g><g
         transform="translate(230.0026,228.2623)"
         id="g2081"><path
           inkscape:connector-curvature="0"
           id="path2083"
           style="fill:#e3c7aa;fill-opacity:1;fill-rule:nonzero;stroke:none"
           d="m 0,0 c -0.764,0.041 -1.627,7.496 -1.844,7.664 -0.216,0.168 0.736,-7.795 1.22,-8.046 z" /></g><g
         transform="translate(228.3536,227.351)"
         id="g2085"><path
           inkscape:connector-curvature="0"
           id="path2087"
           style="fill:#e3c7aa;fill-opacity:1;fill-rule:nonzero;stroke:none"
           d="m 0,0 c -0.642,0.147 -1.123,3.962 -1.291,4.803 -0.168,0.841 -0.168,3.753 -0.36,3.763 -0.193,0.009 -0.289,-2.79 0.072,-4.262 0.36,-1.472 0.974,-4.379 1.279,-4.389 z" /></g><g
         transform="translate(237.6434,244.3995)"
         id="g2089"><path
           inkscape:connector-curvature="0"
           id="path2091"
           style="fill:#f9f8f7;fill-opacity:1;fill-rule:nonzero;stroke:none"
           d="m 0,0 -1.472,-2.37 c 0,0 -3.364,-0.886 -5.758,0.359 -2.394,1.245 -2.597,2.967 -2.597,2.967 l 1.065,2.825 z" /></g><g
         transform="translate(253.7576,299.6491)"
         id="g2093"><path
           inkscape:connector-curvature="0"
           id="path2095"
           style="fill:#445c66;fill-opacity:1;fill-rule:nonzero;stroke:none"
           d="m 0,0 c -2.941,10.066 -12.152,6.786 -13.452,2.403 -1.112,-3.748 -0.969,-8.205 -1.058,-12.073 -0.102,-4.508 0.045,-9.09 -0.889,-13.527 -1.021,-4.852 -2.958,-9.363 -4.573,-14.015 -0.869,-2.503 -1.82,-4.982 -2.759,-7.459 -0.471,-1.243 -0.948,-2.483 -1.437,-3.719 -0.166,-0.419 -1.607,-3.213 -1.413,-3.485 3.448,-4.838 11.812,-6.05 11.812,-6.05 0,0 12.738,24.797 13.313,26.377 0.575,1.58 0.574,6.32 1.276,18.818 C 1.176,-8.1 1.024,-3.503 0,0" /></g><g
         transform="translate(258.3431,329.1689)"
         id="g2097"><path
           inkscape:connector-curvature="0"
           id="path2099"
           style="fill:#e8c8a1;fill-opacity:1;fill-rule:nonzero;stroke:none"
           d="m 0,0 c 1.055,-1.258 0.176,-3.707 -0.5,-4.701 -0.677,-0.994 -2.215,-1.282 -2.696,0 0,0 -0.264,-1.433 0.665,-1.827 0.93,-0.394 2.475,-0.128 3.021,2.051 0.545,2.18 0.288,3.145 0.206,3.43 C 0.615,-0.762 0,0 0,0" /></g><g
         transform="translate(268.5271,321.9679)"
         id="g2101"><path
           inkscape:connector-curvature="0"
           id="path2103"
           style="fill:#f9f8f7;fill-opacity:1;fill-rule:nonzero;stroke:none"
           d="M 0,0 C 0,0 -0.005,-4.275 -6.397,-5.281 -12.789,-6.286 -14.078,-5.6 -14.078,-5.6 l -2.907,-3.873 c 0,0 7.269,-1.875 12.583,0.639 5.315,2.514 5.746,4.668 6.105,5.602 C 2.062,-2.298 0,0 0,0" /></g><g
         transform="translate(239.891,246.7606)"
         id="g2105"><path
           inkscape:connector-curvature="0"
           id="path2107"
           style="fill:#3a4d57;fill-opacity:1;fill-rule:nonzero;stroke:none"
           d="m 0,0 c 0,-0.292 0.237,-0.529 0.529,-0.529 0.292,0 0.529,0.237 0.529,0.529 0,0.292 -0.237,0.529 -0.529,0.529 C 0.237,0.529 0,0.292 0,0" /></g><g
         transform="translate(238.6334,244.1004)"
         id="g2109"><path
           inkscape:connector-curvature="0"
           id="path2111"
           style="fill:#3a4d57;fill-opacity:1;fill-rule:nonzero;stroke:none"
           d="m 0,0 c 0,-0.292 0.237,-0.529 0.529,-0.529 0.292,0 0.529,0.237 0.529,0.529 0,0.292 -0.237,0.529 -0.529,0.529 C 0.237,0.529 0,0.292 0,0" /></g><g
         transform="translate(255.8698,326.3086)"
         id="g2113"><path
           inkscape:connector-curvature="0"
           id="path2115"
           style="fill:#e8c8a1;fill-opacity:1;fill-rule:nonzero;stroke:none"
           d="M 0,0 C 0,0.598 0.246,1.517 0.968,1.556 1.341,1.576 1.692,1.487 1.887,1.139 1.968,0.993 2.009,0.762 1.937,0.612 1.68,0.977 1.26,1.271 0.82,0.954 0.483,0.71 0.254,0.284 0.537,-0.058 c 0.252,-0.304 0.52,-1.06 -0.064,-1.213 -0.23,-0.06 -0.857,-0.115 -0.691,0.283 0.096,0.228 0.409,0.245 0.522,0.437 0.129,0.218 -0.055,0.333 -0.181,0.466 -0.12,0.126 -0.167,0.251 -0.104,0.446" /></g><g
         transform="translate(256.1544,329.5348)"
         id="g2117"><path
           inkscape:connector-curvature="0"
           id="path2119"
           style="fill:#e8c8a1;fill-opacity:1;fill-rule:nonzero;stroke:none"
           d="M 0,0 -9.83,5.238" /></g><g
         transform="translate(255.9775,329.2036)"
         id="g2121"><path
           inkscape:connector-curvature="0"
           id="path2123"
           style="fill:#27253f;fill-opacity:1;fill-rule:nonzero;stroke:none"
           d="M 0,0 -9.83,5.238 -9.477,5.9 0.354,0.662 Z" /></g><g
         transform="translate(269.2325,321.0945)"
         id="g2125"><path
           inkscape:connector-curvature="0"
           id="path2127"
           style="fill:#445c66;fill-opacity:1;fill-rule:nonzero;stroke:none"
           d="m 0,0 c 0,0 0.838,-2.799 -1.906,-4.199 -7.242,-3.695 -15.256,-3.696 -15.256,-3.696 l -3.448,-2.601 c 0,0 3.829,0.076 8.869,0.341 5.041,0.264 10.668,2.37 12.781,4.346 3.811,3.563 -1.549,6.454 -1.549,6.454 z" /></g><g
         transform="translate(204.0804,402.8405)"
         id="g2129"><path
           inkscape:connector-curvature="0"
           id="path2131"
           style="fill:#f24c88;fill-opacity:1;fill-rule:nonzero;stroke:none"
           d="m 0,0 -3.21,1.865 0.026,-9.162 3.21,-1.865 z" /></g><g
         transform="translate(217.6514,444.1554)"
         id="g2133"><path
           inkscape:connector-curvature="0"
           id="path2135"
           style="fill:#f5a4c6;fill-opacity:1;fill-rule:nonzero;stroke:none"
           d="M 0,0 -3.21,1.865 C -3.997,2.323 -5.086,2.258 -6.289,1.564 l 3.21,-1.866 C -1.876,0.393 -0.787,0.457 0,0" /></g><g
         transform="translate(164.9079,385.4189)"
         id="g2137"><path
           inkscape:connector-curvature="0"
           id="path2139"
           style="fill:#f24c88;fill-opacity:1;fill-rule:nonzero;stroke:none"
           d="M 0,0 3.21,-1.865 C 2.433,-1.414 1.952,-0.454 1.948,0.91 l -3.21,1.866 C -1.258,1.411 -0.777,0.451 0,0" /></g><g
         transform="translate(166.7852,411.2834)"
         id="g2141"><path
           inkscape:connector-curvature="0"
           id="path2143"
           style="fill:#f24c88;fill-opacity:1;fill-rule:nonzero;stroke:none"
           d="m 0,0 -3.21,1.866 0.071,-24.955 3.21,-1.865 z" /></g><g
         transform="translate(214.5723,443.8535)"
         id="g2145"><path
           inkscape:connector-curvature="0"
           id="path2147"
           style="fill:#f5a4c6;fill-opacity:1;fill-rule:nonzero;stroke:none"
           d="m 0,0 -3.21,1.866 -43.474,-25.1 3.21,-1.866 z" /></g><g
         transform="translate(171.0982,418.7537)"
         id="g2149"><path
           inkscape:connector-curvature="0"
           id="path2151"
           style="fill:#fc7eb2;fill-opacity:1;fill-rule:nonzero;stroke:none"
           d="m 0,0 c -2.39,-1.38 -4.321,-4.724 -4.313,-7.47 l 0.071,-24.954 c 0.008,-2.747 1.951,-3.854 4.341,-2.474 l 32.883,18.985 0.026,-9.163 7.948,13.766 2.617,1.511 c 2.39,1.38 4.321,4.724 4.313,7.471 l -0.071,24.954 c -0.008,2.747 -1.951,3.854 -4.341,2.474 z" /></g><g
         transform="translate(171.0982,418.7537)"
         id="g2153"><path
           inkscape:connector-curvature="0"
           id="path2155"
           style="fill:#f5a4c6;fill-opacity:1;fill-rule:nonzero;stroke:none"
           d="m 0,0 -3.21,1.865 c -2.39,-1.38 -4.321,-4.723 -4.313,-7.47 l 3.21,-1.865 C -4.321,-4.724 -2.39,-1.38 0,0" /></g><g
         id="g2157"><g
           id="g2159" /><g
           id="g2231"><g
             id="g2229"
             clip-path="url(#clipPath2163)"><g
               id="g2191"><g
                 id="g2181" /><g
                 id="g2189"><g
                   id="g2187"
                   clip-path="url(#clipPath2167)"><g
                     id="g2185"
                     transform="translate(179.6332,397.6761)"><path
                       inkscape:connector-curvature="0"
                       id="path2183"
                       style="fill:#d1d3d4;fill-opacity:1;fill-rule:nonzero;stroke:none"
                       d="m 0,0 0.007,-2.473 32.976,19.039 -0.007,2.473 z" /></g></g></g></g><g
               id="g2203"><g
                 id="g2193" /><g
                 id="g2201"><g
                   id="g2199"
                   clip-path="url(#clipPath2171)"><g
                     id="g2197"
                     transform="translate(174.3584,400.7087)"><path
                       inkscape:connector-curvature="0"
                       id="path2195"
                       style="fill:#d1d3d4;fill-opacity:1;fill-rule:nonzero;stroke:none"
                       d="m 0,0 0.007,-2.479 38.234,22.074 -0.007,2.479 z" /></g></g></g></g><g
               id="g2215"><g
                 id="g2205" /><g
                 id="g2213"><g
                   id="g2211"
                   clip-path="url(#clipPath2175)"><g
                     id="g2209"
                     transform="translate(174.3412,406.7701)"><path
                       inkscape:connector-curvature="0"
                       id="path2207"
                       style="fill:#d1d3d4;fill-opacity:1;fill-rule:nonzero;stroke:none"
                       d="m 0,0 0.007,-2.473 38.234,22.075 -0.007,2.472 z" /></g></g></g></g><g
               id="g2227"><g
                 id="g2217" /><g
                 id="g2225"><g
                   id="g2223"
                   clip-path="url(#clipPath2179)"><g
                     id="g2221"
                     transform="translate(174.324,412.8382)"><path
                       inkscape:connector-curvature="0"
                       id="path2219"
                       style="fill:#d1d3d4;fill-opacity:1;fill-rule:nonzero;stroke:none"
                       d="m 0,0 0.007,-2.479 38.234,22.074 -0.007,2.479 z" /></g></g></g></g></g></g></g><g
         transform="translate(267.2389,361.946)"
         id="g2233"><path
           inkscape:connector-curvature="0"
           id="path2235"
           style="fill:#d8d0bc;fill-opacity:1;fill-rule:nonzero;stroke:none"
           d="m 0,0 -2.568,1.492 0.026,-9.155 2.568,-1.493 z" /></g><g
         transform="translate(310.9481,421.8148)"
         id="g2237"><path
           inkscape:connector-curvature="0"
           id="path2239"
           style="fill:#f9f8f7;fill-opacity:1;fill-rule:nonzero;stroke:none"
           d="M 0,0 -2.568,1.492 C -3.355,1.95 -4.444,1.885 -5.647,1.19 l 2.568,-1.492 C -1.876,0.393 -0.787,0.457 0,0" /></g><g
         transform="translate(258.899,361.5818)"
         id="g2241"><path
           inkscape:connector-curvature="0"
           id="path2243"
           style="fill:#d8d0bc;fill-opacity:1;fill-rule:nonzero;stroke:none"
           d="M 0,0 2.568,-1.492 C 1.791,-1.041 1.31,-0.081 1.306,1.283 L -1.262,2.776 C -1.258,1.411 -0.777,0.451 0,0" /></g><g
         transform="translate(260.0819,388.9428)"
         id="g2245"><path
           inkscape:connector-curvature="0"
           id="path2247"
           style="fill:#d8d0bc;fill-opacity:1;fill-rule:nonzero;stroke:none"
           d="m 0,0 -2.568,1.492 0.123,-26.077 2.568,-1.493 z" /></g><g
         transform="translate(307.869,421.5129)"
         id="g2249"><path
           inkscape:connector-curvature="0"
           id="path2251"
           style="fill:#f9f8f7;fill-opacity:1;fill-rule:nonzero;stroke:none"
           d="m 0,0 -2.568,1.492 -43.474,-25.099 2.568,-1.493 z" /></g><g
         transform="translate(264.3949,396.4131)"
         id="g2253"><path
           inkscape:connector-curvature="0"
           id="path2255"
           style="fill:#e9e5d9;fill-opacity:1;fill-rule:nonzero;stroke:none"
           d="m 0,0 c -2.39,-1.38 -4.321,-4.724 -4.313,-7.47 l 0.123,-26.078 c 0.008,-2.747 1.951,-3.854 4.341,-2.474 l 2.693,1.555 0.026,-9.156 7.948,13.759 32.807,18.942 c 2.391,1.38 4.321,4.724 4.313,7.47 l -0.123,26.078 c -0.008,2.747 -1.951,3.854 -4.341,2.474 z" /></g><g
         transform="translate(264.3949,396.4131)"
         id="g2257"><path
           inkscape:connector-curvature="0"
           id="path2259"
           style="fill:#f9f8f7;fill-opacity:1;fill-rule:nonzero;stroke:none"
           d="m 0,0 -2.568,1.492 c -2.39,-1.38 -4.321,-4.723 -4.313,-7.47 L -4.313,-7.47 C -4.321,-4.724 -2.39,-1.38 0,0" /></g><g
         transform="translate(272.4359,373.4789)"
         id="g2261"><path
           inkscape:connector-curvature="0"
           id="path2263"
           style="fill:#aea99a;fill-opacity:1;fill-rule:nonzero;stroke:none"
           d="m 0,0 0.007,-2.473 32.976,19.039 -0.007,2.473 z" /></g><g
         transform="translate(267.1611,376.5116)"
         id="g2265"><path
           inkscape:connector-curvature="0"
           id="path2267"
           style="fill:#aea99a;fill-opacity:1;fill-rule:nonzero;stroke:none"
           d="m 0,0 0.007,-2.479 38.234,22.074 -0.007,2.479 z" /></g><g
         transform="translate(267.1439,382.573)"
         id="g2269"><path
           inkscape:connector-curvature="0"
           id="path2271"
           style="fill:#aea99a;fill-opacity:1;fill-rule:nonzero;stroke:none"
           d="m 0,0 0.007,-2.473 38.234,22.075 -0.007,2.472 z" /></g><g
         transform="translate(267.1267,388.6411)"
         id="g2273"><path
           inkscape:connector-curvature="0"
           id="path2275"
           style="fill:#aea99a;fill-opacity:1;fill-rule:nonzero;stroke:none"
           d="m 0,0 0.007,-2.479 38.234,22.074 -0.007,2.479 z" /></g></g></g></svg>