<?xml version="1.0" encoding="UTF-8" standalone="no"?>
<!-- Created with Inkscape (http://www.inkscape.org/) -->

<svg
   xmlns:dc="http://purl.org/dc/elements/1.1/"
   xmlns:cc="http://creativecommons.org/ns#"
   xmlns:rdf="http://www.w3.org/1999/02/22-rdf-syntax-ns#"
   xmlns:svg="http://www.w3.org/2000/svg"
   xmlns="http://www.w3.org/2000/svg"
   xmlns:sodipodi="http://sodipodi.sourceforge.net/DTD/sodipodi-0.dtd"
   xmlns:inkscape="http://www.inkscape.org/namespaces/inkscape"
   version="1.1"
   id="svg4533"
   xml:space="preserve"
   width="1110.3533"
   height="888.6557"
   viewBox="0 0 1110.3533 888.65566"
   sodipodi:docname="illustration02.svg"
   inkscape:version="0.92.3 (2405546, 2018-03-11)"><metadata
     id="metadata4539"><rdf:RDF><cc:Work
         rdf:about=""><dc:format>image/svg+xml</dc:format><dc:type
           rdf:resource="http://purl.org/dc/dcmitype/StillImage" /><dc:title></dc:title></cc:Work></rdf:RDF></metadata><defs
     id="defs4537" /><sodipodi:namedview
     pagecolor="#ffffff"
     bordercolor="#666666"
     borderopacity="1"
     objecttolerance="10"
     gridtolerance="10"
     guidetolerance="10"
     inkscape:pageopacity="0"
     inkscape:pageshadow="2"
     inkscape:window-width="1696"
     inkscape:window-height="1217"
     id="namedview4535"
     showgrid="false"
     fit-margin-top="0"
     fit-margin-left="0"
     fit-margin-right="0"
     fit-margin-bottom="0"
     inkscape:zoom="0.62578945"
     inkscape:cx="458.27141"
     inkscape:cy="532.26069"
     inkscape:window-x="475"
     inkscape:window-y="178"
     inkscape:window-maximized="0"
     inkscape:current-layer="g4541" /><g
     id="g4541"
     inkscape:groupmode="layer"
     inkscape:label="ink_ext_XXXXXX"
     transform="matrix(1.3333333,0,0,-1.3333333,-110.36936,938.79064)"><g
       id="g5339"><path
         d="m 800.636,37.6012 c -5.163,0 -10.355,0.1957 -15.605,0.6758 -20.054,1.8308 -40.382,2.746 -60.336,5.3601 -45.796,5.9988 -91.612,6.3527 -137.741,6.3527 -18.321,0 -36.642,0.1684 -54.96,0.1684 -26.656,0 -53.302,-0.3551 -79.906,-2.0973 -41.526,-2.7199 -83.12,-3.1519 -124.72,-3.1519 -6.26,0 -12.522,0.0101 -18.782,0.023 -0.402,0.0012 -0.804,0.0012 -1.206,0.0012 -23.028,0 -45.965,-1.3871 -68.959,-2.3684 -23.092,-0.9847 -45.547,-2.6027 -68.505,-2.6027 -2.073,0 -4.152,0.0129 -6.234,0.041 -22.943,0.309 -57.876,6.85 -74.2433,23.5199 -9.718,9.904 -8.4004,33.7321 1.3316,43.283 4.252,4.171 11.1057,7.438 16.7047,9.427 15.949,5.663 32.178,5.676 48.844,5.794 0.206,0.001 0.411,0.002 0.617,0.002 11.498,0 23.454,-2.269 34.473,-5.419 10.028,-2.868 20.273,-3.872 30.471,-5.658 8.345,-1.46 17.274,-2.16 26.104,-2.16 5.746,0.001 11.451,0.297 16.924,0.872 14.808,1.557 29.721,2.281 44.571,3.507 18.442,1.525 36.49,4.827 54.866,6.598 9.2,0.886 18.186,3.083 27.366,4.083 24.344,2.649 48.731,3.223 73.118,3.294 1.956,0.005 3.911,0.008 5.866,0.008 11.632,0 23.264,-0.085 34.89,-0.085 9.44,0 18.872,0.027 28.308,0.027 32.277,0 64.529,-0.324 96.72,-3.189 9.976,-0.887 19.887,-0.35 29.724,-2.462 9.876,-2.122 19.847,-4.057 29.966,-4.434 8.661,-0.323 17.349,-0.43 26.046,-0.43 15.458,0 30.944,0.337 46.351,0.392 1.54,0.005 3.68,0.015 6.335,0.015 34.468,0 154.687,-1.545 146.066,-32.931 C 911.788,71.9992 892.53,56.3063 881.729,51.2539 868.082,44.8719 853.16,41.098 838.139,39.825 825.479,38.752 813.136,37.6012 800.636,37.6012"
         style="fill:#91bdc7;fill-opacity:1;fill-rule:nonzero;stroke:none;stroke-width:0.1"
         id="path4547"
         inkscape:connector-curvature="0" /><path
         d="m 798.76,271.052 0.194,-6.047 -10.672,-3.885 -6.151,4.661 -0.004,7.039 5.938,0.331 0.187,1.548 1.944,1.25 8.564,-4.897"
         style="fill:#e1cfb5;fill-opacity:1;fill-rule:nonzero;stroke:none;stroke-width:0.1"
         id="path4549"
         inkscape:connector-curvature="0" /><path
         d="m 580.479,223.283 2.292,-53.183 -6.721,-90.4301 -10.058,-0.7148 -12.221,82.1319 -16.905,69.5 43.613,-7.304"
         style="fill:#3b455a;fill-opacity:1;fill-rule:nonzero;stroke:none;stroke-width:0.1"
         id="path4551"
         inkscape:connector-curvature="0" /><path
         d="m 566.53,72.2031 h 15.099 l 0.626,4.9879 -5.413,3.7391 -10.877,-0.7742 0.565,-7.9528"
         style="fill:#3b455a;fill-opacity:1;fill-rule:nonzero;stroke:none;stroke-width:0.1"
         id="path4553"
         inkscape:connector-curvature="0" /><path
         d="m 509.278,239.102 -2.207,-40.2 6.549,-119.5329 10.071,-0.5031 15.094,78.397 13.313,85.973 -42.82,-4.134"
         style="fill:#3b455a;fill-opacity:1;fill-rule:nonzero;stroke:none;stroke-width:0.1"
         id="path4555"
         inkscape:connector-curvature="0" /><path
         d="M 523.281,71.8172 508.582,71.2 l -1.497,4.2391 5.718,5.173 10.89,-0.5441 -0.412,-8.2508"
         style="fill:#3b455a;fill-opacity:1;fill-rule:nonzero;stroke:none;stroke-width:0.1"
         id="path4557"
         inkscape:connector-curvature="0" /><path
         d="m 567.835,360.531 -31.427,3.367 c 0,0 -17.482,-1.868 -29.345,-43.388 -6.6,-23.1 -8.609,-59.493 -9.092,-87.239 0.742,-3.958 5.053,-21.295 23.287,-18.355 31.311,5.051 47.977,10.101 61.613,7.575 11.615,-2.524 10.633,13.467 9.357,25.672 l -4.629,37.761 -19.764,74.607"
         style="fill:#ccb5e6;fill-opacity:1;fill-rule:nonzero;stroke:none;stroke-width:0.1"
         id="path4559"
         inkscape:connector-curvature="0" /><path
         d="m 561.767,399.65 c -7.922,1.746 -16.075,3.31 -24.004,1.741 -1.737,-0.344 -3.601,-0.948 -4.543,-2.448 -0.366,-0.58 -0.558,-1.25 -0.737,-1.913 -2.001,-7.439 -4.539,-18.465 0.358,-25.318 0.933,-1.307 2.187,-2.345 3.535,-3.186 1.802,-1.126 3.797,-1.893 5.859,-2.3 -0.426,-1.849 -1.02,-3.659 -1.773,-5.402 1.812,-2.734 10.272,-3.062 11.836,-0.44 0.088,2.268 0.176,4.536 0.264,6.805 1.029,0.416 2.024,0.921 2.958,1.536 3.615,2.382 5.997,5.995 7.38,10.037 1.507,4.401 3.627,8.586 5.003,13.072 0.501,1.635 0.897,3.5 0.037,4.978 -0.915,1.573 -2.89,2.108 -4.667,2.504 -0.502,0.111 -1.003,0.223 -1.506,0.334"
         style="fill:#c17e72;fill-opacity:1;fill-rule:nonzero;stroke:none;stroke-width:0.1"
         id="path4561"
         inkscape:connector-curvature="0" /><path
         d="m 565.237,378.998 c 3.806,3.908 8.26,9.373 8.604,14.334 0.284,4.105 -0.284,9.702 -2.583,13.247 -2.153,3.317 -7.654,5.139 -10.926,7.061 -3.084,1.811 -6.169,3.623 -9.253,5.434 -0.641,0.377 -1.301,0.761 -2.033,0.888 -0.867,0.151 -1.751,-0.071 -2.603,-0.291 -7.29,-1.884 -14.579,-3.768 -21.869,-5.652 -1.4,-0.362 -2.996,-0.891 -3.511,-2.242 -0.314,-0.822 -0.13,-1.74 0.058,-2.6 0.827,-3.784 2.416,-7.651 2.81,-11.486 0.604,-3.027 0.489,-5.736 2.701,-7.949 2.082,-2.083 4.851,-3.219 6.517,-5.77 1.203,-1.841 1.665,-4.059 2.607,-6.045 4.269,-9 21.553,-6.602 27.534,-0.859 0.61,0.587 1.269,1.233 1.947,1.93"
         style="fill:#3b455a;fill-opacity:1;fill-rule:nonzero;stroke:none;stroke-width:0.1"
         id="path4563"
         inkscape:connector-curvature="0" /><path
         d="m 561.17,357.843 21.601,23.338 -5.088,63.25 9.492,4.169 19.971,-63.647 -7.059,-19.581 -28.965,-38.932 -9.952,31.403"
         style="fill:#ccb5e6;fill-opacity:1;fill-rule:nonzero;stroke:none;stroke-width:0.1"
         id="path4565"
         inkscape:connector-curvature="0" /><path
         d="m 585.144,447.707 c 0,0 0,5.699 0,5.789 0,2.114 -5.32,7.047 -6.672,8.819 -0.772,1.01 -4.314,-4.499 -4.357,-5.41 -0.073,-1.555 2.167,-4.884 2.783,-6.498 l -1.89,-2.7 2.675,-3.276 7.461,3.276"
         style="fill:#c17e72;fill-opacity:1;fill-rule:nonzero;stroke:none;stroke-width:0.1"
         id="path4567"
         inkscape:connector-curvature="0" /><path
         d="m 522.524,352.986 -24.45,20.335 -3.167,63.375 -9.953,2.901 -11.537,-65.701 9.541,-18.498 33.775,-34.842 5.791,32.43"
         style="fill:#ccb5e6;fill-opacity:1;fill-rule:nonzero;stroke:none;stroke-width:0.1"
         id="path4569"
         inkscape:connector-curvature="0" /><path
         d="m 487.085,438.976 -0.752,5.74 c -0.274,2.096 4.358,7.679 5.47,9.609 0.634,1.104 4.861,-3.9 5.022,-4.797 0.275,-1.533 -1.514,-5.124 -1.916,-6.804 l 2.226,-2.432 -2.228,-3.596 -7.822,2.28"
         style="fill:#c17e72;fill-opacity:1;fill-rule:nonzero;stroke:none;stroke-width:0.1"
         id="path4571"
         inkscape:connector-curvature="0" /><path
         d="m 138.644,392.426 c -3.952,1.934 -7.671,4.339 -11.057,7.147 -1.102,0.914 -2.274,2.201 -1.888,3.578 0.444,1.579 2.525,1.916 4.158,1.772 3.081,-0.27 6.103,-1.171 8.828,-2.63 0.674,0.213 -0.194,1.296 0.106,1.937 0.138,0.292 0.498,0.404 0.82,0.422 4.419,0.244 6.142,-5.771 7.654,-8.665 -3.092,-1.623 -6.294,-1.685 -9.04,-4.146 l 0.419,0.585"
         style="fill:#efbfa5;fill-opacity:1;fill-rule:nonzero;stroke:none;stroke-width:0.1"
         id="path4573"
         inkscape:connector-curvature="0" /><path
         d="m 328.231,320.845 5.728,-0.839 c 2.091,-0.306 11.226,4.3 13.174,5.382 1.112,0.617 -7.309,4.861 -8.204,5.036 -1.528,0.298 -5.146,-1.436 -6.831,-1.812 l -2.399,2.261 -3.63,-2.172 2.162,-7.856"
         style="fill:#efbfa5;fill-opacity:1;fill-rule:nonzero;stroke:none;stroke-width:0.1"
         id="path4575"
         inkscape:connector-curvature="0" /><path
         d="m 187.904,84.952 -0.797,-6.195 11.595,-7.7879 6.991,5.3981 -5.398,6.993 -11.595,7.7878 -0.796,-6.196"
         style="fill:#3b455a;fill-opacity:1;fill-rule:nonzero;stroke:none;stroke-width:0.1"
         id="path4577"
         inkscape:connector-curvature="0" /><path
         d="m 187.512,87.032 8.941,79.011 -10.758,88.453 2.42,18.816 48.051,1.825 1.733,-30.624 -8.066,-78.591 -30.348,-82.9279 -11.973,4.0379"
         style="fill:#587bc9;fill-opacity:1;fill-rule:nonzero;stroke:none;stroke-width:0.1"
         id="path4579"
         inkscape:connector-curvature="0" /><path
         d="m 243.817,360.842 21.597,-12.691 17.132,-24.012 45.643,6.616 1.427,-12.572 -51.84,-17.277 -26.566,9.942 -7.393,49.994"
         style="fill:#305399;fill-opacity:1;fill-rule:nonzero;stroke:none;stroke-width:0.1"
         id="path4581"
         inkscape:connector-curvature="0" /><path
         d="m 271.424,266.283 0.126,-79.733 -16.049,-102.6418 -11.552,0.1156 -6.349,94.9202 -14.862,95.004 48.686,-7.665"
         style="fill:#587bc9;fill-opacity:1;fill-rule:nonzero;stroke:none;stroke-width:0.1"
         id="path4583"
         inkscape:connector-curvature="0" /><path
         d="m 243.967,79.152 12.429,-6.3711 6.309,6.1843 -6.184,6.3086 -12.492,0.1242 -0.062,-6.246"
         style="fill:#3b455a;fill-opacity:1;fill-rule:nonzero;stroke:none;stroke-width:0.1"
         id="path4585"
         inkscape:connector-curvature="0" /><path
         d="m 180.723,239.166 c 0.11,3.455 0.302,6.338 0.33,7.368 0.247,9.269 1.073,18.517 2.233,27.72 1.04,8.246 2.353,28.72 3.764,36.916 1.166,6.768 5.225,23.658 8.16,29.936 7.296,15.609 5.042,17.051 37.092,21.686 14.047,2.031 17.367,-6.722 28.85,-16.79 1.133,-0.992 1.071,-6.904 1.333,-8.47 0.463,-2.756 0.958,-5.508 1.527,-8.248 0.447,-2.152 0.94,-4.298 1.493,-6.43 l -10e-4,0.001 c 0,0 9.641,-43.872 16.016,-53.191 6.375,-9.317 19.545,-22.343 -2.486,-30.297 -3.905,-1.262 -7.834,-2.463 -11.897,-3.105 0,0 -18.019,2.003 -27.285,1.934 -8.535,-0.064 -17.104,-0.928 -25.495,-2.374 -5.61,-0.939 -11.336,-2.301 -16.354,-4.923 -4.788,-2.501 -8.244,-6.18 -13.103,-8.77 -0.46,-0.245 -0.964,-0.499 -1.487,-0.427 -2.791,0.387 -2.922,10.192 -2.69,17.464"
         style="fill:#305399;fill-opacity:1;fill-rule:nonzero;stroke:none;stroke-width:0.1"
         id="path4587"
         inkscape:connector-curvature="0" /><path
         d="m 229.425,358.751 c -1.311,-1.238 -4.875,-2.633 -9.14,-2.312 -0.858,0.065 -1.603,0.645 -1.846,1.472 -0.68,2.322 -1.204,4.688 -1.566,7.079 -3.163,0.127 -6.925,0.619 -8.339,3.451 -0.445,0.891 -0.578,1.902 -0.705,2.891 -0.521,4.089 -1.044,8.177 -1.566,12.266 -0.18,1.414 -0.359,2.872 0.018,4.247 0.661,2.413 2.877,4.061 5.108,5.193 5.691,2.891 12.642,3.602 18.514,1.096 1.563,-0.666 3.072,-1.581 4.088,-2.942 1.568,-2.099 1.737,-4.894 1.845,-7.511 0.1,-2.415 0.199,-4.831 0.3,-7.247 0.114,-2.778 0.038,-6.001 -2.143,-7.727 -1.158,-0.916 -2.757,-1.243 -3.716,-2.367 -1.689,-1.98 -0.447,-5.017 -0.852,-7.589"
         style="fill:#efbfa5;fill-opacity:1;fill-rule:nonzero;stroke:none;stroke-width:0.1"
         id="path4589"
         inkscape:connector-curvature="0" /><path
         d="m 252.227,408.133 c 0.292,1.151 0.64,2.282 1.083,3.378 0.958,2.375 2.356,4.588 2.949,7.078 0.593,2.491 0.15,5.485 -1.936,6.971 -1.345,0.958 -3.096,1.105 -4.749,1.086 -5.444,-0.065 -10.863,-1.621 -15.511,-4.454 -4.429,-2.7 -8.106,-6.045 -13.497,-5.725 -5.064,0.3 -8.133,-1.399 -12.362,-4.553 -4.575,-3.412 -11.341,-5.965 -15.196,-9.982 -1.611,-1.678 -2.642,-3.844 -3.277,-6.081 -2.199,-7.75 0.517,-16.671 6.663,-21.882 1.378,-1.169 2.901,-2.156 4.463,-3.066 3.232,-1.885 7.13,-4.242 10.764,-4.191 -0.837,3.008 -6.445,11.58 -4.905,14.73 2.443,4.997 11.08,6.17 15.885,6.6 5.24,0.47 10.696,-1.667 15.802,-0.913 3.675,0.543 7.626,3.641 10.053,6.372 2.995,3.373 2.703,10.431 3.771,14.632"
         style="fill:#3b455a;fill-opacity:1;fill-rule:nonzero;stroke:none;stroke-width:0.1"
         id="path4591"
         inkscape:connector-curvature="0" /><path
         d="m 204.27,355.924 -25.215,-6.476 -30.366,47.2 -12.814,-3.46 21.362,-67.946 49.159,-5.918 -2.126,36.6"
         style="fill:#305399;fill-opacity:1;fill-rule:nonzero;stroke:none;stroke-width:0.1"
         id="path4593"
         inkscape:connector-curvature="0" /><path
         d="m 817.887,94.0801 c 1.107,1.2199 2.4,1.8859 3.861,1.6558 1.403,-0.2207 2.666,-1.1711 3.244,-2.4437 0.395,-0.868 0.479,-1.8352 0.557,-2.7813 0.404,-4.8968 0.368,-16.525 -6.155,-18.1988 -2.743,-0.7031 -5.01,1.2442 -5.743,3.7059 -1.102,3.709 0.531,13.9832 4.236,18.0621"
         style="fill:#3b455a;fill-opacity:1;fill-rule:nonzero;stroke:none;stroke-width:0.1"
         id="path4595"
         inkscape:connector-curvature="0" /><path
         d="m 815.566,167.963 0.341,-29.873 c -0.396,-13.268 1.675,-26.611 1.279,-39.8798 -0.092,-3.0512 -0.887,-6.2692 -0.119,-9.2942 0.752,-2.959 3.156,-3.4808 5.623,-1.9828 3.306,2.0066 2.773,6.6938 3.324,10.1129 1.512,9.3969 3.287,18.7489 4.866,28.1339 0.774,4.601 -0.821,11.049 -0.475,15.705 l 4.826,25.035 -19.665,2.043"
         style="fill:#f4c7b3;fill-opacity:1;fill-rule:nonzero;stroke:none;stroke-width:0.1"
         id="path4597"
         inkscape:connector-curvature="0" /><path
         d="m 849.697,216.23 -13.002,-57.753 -2.761,-54.539 -20.616,0.463 -5.605,152.554 39.964,-0.725 2.02,-40"
         style="fill:#bcbec0;fill-opacity:1;fill-rule:nonzero;stroke:none;stroke-width:0.1"
         id="path4599"
         inkscape:connector-curvature="0" /><path
         d="m 788.399,95.1648 c 1.157,1.1571 2.474,1.7461 3.92,1.4301 1.389,-0.3039 2.607,-1.3297 3.129,-2.6379 0.356,-0.8898 0.398,-1.864 0.436,-2.8148 0.193,-4.9262 -0.34,-16.5613 -6.913,-17.8512 -2.763,-0.5418 -4.941,1.541 -5.565,4.0481 -0.94,3.7769 1.126,13.9629 4.993,17.8257"
         style="fill:#3b455a;fill-opacity:1;fill-rule:nonzero;stroke:none;stroke-width:0.1"
         id="path4601"
         inkscape:connector-curvature="0" /><path
         d="m 799.266,163.769 -1.75,-29.823 c -0.143,-8.289 -1.247,-16.512 -2.105,-24.745 -0.797,-7.646 0.443,-15.6108 -3.554,-22.5658 -1.253,-2.1813 -3.786,-3.6332 -5.555,-0.9832 -1.364,2.0429 -0.554,5.4492 -0.816,7.7652 -1.068,9.4558 -2.399,18.8808 -3.535,28.3288 -0.556,4.632 1.342,10.998 1.215,15.666 l -3.641,25.232 19.741,1.125"
         style="fill:#f4c7b3;fill-opacity:1;fill-rule:nonzero;stroke:none;stroke-width:0.1"
         id="path4603"
         inkscape:connector-curvature="0" /><path
         d="m 773.177,219.761 -1.678,-56.062 8.799,-56.692 20.97,-0.627 -0.926,61.355 11.096,50.881 3.726,33.306 -33.274,3.925 -8.713,-36.086"
         style="fill:#bcbec0;fill-opacity:1;fill-rule:nonzero;stroke:none;stroke-width:0.1"
         id="path4605"
         inkscape:connector-curvature="0" /><path
         d="m 799.5,370.579 35.848,0.857 20.784,-38.655 -7.388,-36.207 -1.315,-43.327 -51.135,-0.698 -16.826,2.732 4.468,46.294 -2.562,61.842 18.126,7.162"
         style="fill:#3b455a;fill-opacity:1;fill-rule:nonzero;stroke:none;stroke-width:0.1"
         id="path4607"
         inkscape:connector-curvature="0" /><path
         d="m 804.198,404.031 c 7.057,15.042 27.049,6.965 29.801,-7.402 1.795,-9.372 -6.481,-20.391 -16.164,-21.983 -0.079,-0.353 -1.114,-3.404 -1.146,-3.687 -0.164,-1.455 -0.498,-2.872 -0.871,-4.303 -0.138,-0.535 -8.196,1.933 -9.093,2.212 -0.315,0.099 -0.663,0.224 -0.807,0.512 -0.276,0.553 1.395,4.736 1.517,5.304 0.144,0.67 0.289,1.34 0.432,2.01 -4.393,2.763 -6.8,7.9 -7.088,12.895 -0.289,5.02 1.298,9.922 3.419,14.442"
         style="fill:#f4c7b3;fill-opacity:1;fill-rule:nonzero;stroke:none;stroke-width:0.1"
         id="path4609"
         inkscape:connector-curvature="0" /><path
         d="m 819.174,416.697 c 0.985,-1.242 1.251,-2.855 1.407,-4.393 0.094,-0.918 0.158,-1.864 -0.13,-2.733 -1.148,-3.464 -4.645,-2.9 -7.489,-3.749 -3.506,-1.048 -6.679,-3.332 -8.879,-6.118 -3.445,-4.363 -2.771,-10.527 -2.135,-15.818 0.224,-1.864 0.779,-4.66 -0.807,-6.131 -1.612,-1.494 -4.898,-0.883 -6.524,0.151 -1.485,0.945 -2.619,2.517 -4.31,2.991 -1.791,0.502 -4.342,-0.034 -5.01,1.73 -0.186,0.491 -0.147,1.063 -0.399,1.521 -0.852,1.55 -3.54,0.133 -4.85,1.3 -0.806,0.719 -0.656,2.05 -0.247,3.072 0.409,1.021 1.021,2.035 0.93,3.129 -0.077,0.94 -0.663,1.74 -0.983,2.622 -0.633,1.742 -0.12,3.867 1.238,5.135 2.526,2.356 6.818,1.394 9.487,3.579 1.39,1.138 2.074,2.922 2.729,4.61 0.654,1.687 1.412,3.46 2.879,4.493 1.813,1.277 4.175,0.772 5.994,2.321 1.069,0.911 1.851,2.162 3.023,2.928 1.544,1.01 4.415,1.605 6.244,2.008 2.901,0.639 5.969,-0.298 7.832,-2.648"
         style="fill:#3b455a;fill-opacity:1;fill-rule:nonzero;stroke:none;stroke-width:0.1"
         id="path4611"
         inkscape:connector-curvature="0" /><path
         d="m 829.531,390.363 c -0.458,-5.153 -3.611,-10.436 -1.73,-15.217 1.897,-4.824 7.766,-6.29 12.819,-7.076 0.831,-0.129 11.449,-2.21 11.517,-2.012 1.188,3.495 2.412,7.057 4.623,10.001 2.21,2.942 5.621,5.211 9.229,5.048 -1.015,0.291 -1.4,1.613 -1.166,2.668 0.236,1.053 0.892,1.957 1.322,2.948 1.056,2.435 0.61,5.458 -1.1,7.433 -3.41,3.943 -10.442,3.216 -13.254,7.625 -1.744,2.734 -1.11,6.358 -1.836,9.544 -1.401,6.162 -7.771,8.106 -12.344,11.313 -4.826,3.385 -9.491,5.458 -15.521,5.109 -7.474,-0.431 -13.737,-7.319 -11.664,-14.659 2.659,-9.414 17.263,-10.2 18.995,-19.654 0.185,-1.016 0.202,-2.041 0.11,-3.071"
         style="fill:#3b455a;fill-opacity:1;fill-rule:nonzero;stroke:none;stroke-width:0.1"
         id="path4613"
         inkscape:connector-curvature="0" /><path
         d="m 824.743,370.784 -11.121,-15.717 -5.227,0.427 -8.714,15.942 25.062,-0.652"
         style="fill:#f9f9f9;fill-opacity:1;fill-rule:nonzero;stroke:none;stroke-width:0.1"
         id="path4615"
         inkscape:connector-curvature="0" /><path
         d="m 799.681,371.436 -20.213,-1.099 c 0,0 -22.688,-11.156 -24.189,-10.319 -1.501,0.838 -26.016,49.922 -26.016,49.922 l -12.008,-3.9 15.01,-56.147 14.508,-15.002 41.027,6.828 11.881,29.717"
         style="fill:#3b455a;fill-opacity:1;fill-rule:nonzero;stroke:none;stroke-width:0.1"
         id="path4617"
         inkscape:connector-curvature="0" /><path
         d="m 719.134,406.73 -3.225,4.807 c -1.177,1.755 0.492,8.816 0.63,11.039 0.078,1.271 6.088,-1.334 6.631,-2.066 0.927,-1.25 0.92,-5.263 1.308,-6.945 l 3.074,-1.19 -0.397,-4.212 -8.021,-1.433"
         style="fill:#f4c7b3;fill-opacity:1;fill-rule:nonzero;stroke:none;stroke-width:0.1"
         id="path4619"
         inkscape:connector-curvature="0" /><path
         d="m 294.574,552.104 -63.165,28.54 v 75.969 l 63.165,-28.54 v -75.969"
         style="fill:#d7e8f4;fill-opacity:1;fill-rule:nonzero;stroke:none;stroke-width:0.1"
         id="path4621"
         inkscape:connector-curvature="0" /><path
         d="m 294.574,552.104 63.165,28.54 v 75.969 l -63.165,-28.54 v -75.969"
         style="fill:#c6dae5;fill-opacity:1;fill-rule:nonzero;stroke:none;stroke-width:0.1"
         id="path4623"
         inkscape:connector-curvature="0" /><path
         d="m 231.409,656.613 63.165,-28.54 63.165,28.54 -63.165,25.913 -63.165,-25.913"
         style="fill:#e4f0f4;fill-opacity:1;fill-rule:nonzero;stroke:none;stroke-width:0.1"
         id="path4625"
         inkscape:connector-curvature="0" /><path
         d="m 798.988,594.504 -53.076,23.982 v 63.834 l 53.076,-23.982 v -63.834"
         style="fill:#d7e8f4;fill-opacity:1;fill-rule:nonzero;stroke:none;stroke-width:0.1"
         id="path4627"
         inkscape:connector-curvature="0" /><path
         d="m 798.988,594.504 53.075,23.982 v 63.834 l -53.075,-23.982 v -63.834"
         style="fill:#c6dae5;fill-opacity:1;fill-rule:nonzero;stroke:none;stroke-width:0.1"
         id="path4629"
         inkscape:connector-curvature="0" /><path
         d="m 745.912,682.32 53.076,-23.982 53.075,23.982 -53.075,21.773 -53.076,-21.773"
         style="fill:#e4f0f4;fill-opacity:1;fill-rule:nonzero;stroke:none;stroke-width:0.1"
         id="path4631"
         inkscape:connector-curvature="0" /><path
         d="m 334.196,598.971 -8.695,3.938 1.312,2.899 8.696,-3.939 z m 14.492,-6.564 -8.695,3.939 1.313,2.898 8.696,-3.938 z m 14.494,-6.563 -8.696,3.938 1.313,2.899 8.695,-3.939 z m 14.492,-6.563 -8.695,3.938 1.312,2.898 8.695,-3.938 z m 14.493,-6.564 -8.696,3.939 1.313,2.898 8.695,-3.939 z m 14.492,-6.563 -8.695,3.938 1.312,2.898 8.696,-3.938 z m 14.493,-6.564 -8.696,3.939 1.313,2.898 8.696,-3.938 z m 14.493,-6.563 -8.696,3.938 1.313,2.899 8.695,-3.939 z m 14.492,-6.564 -8.696,3.939 1.313,2.898 8.695,-3.938 z m 14.493,-6.563 -8.696,3.938 1.313,2.899 8.695,-3.939 z m 13.239,-5.996 -7.442,3.371 1.312,2.898 7.443,-3.371 -1.313,-2.898"
         style="fill:#587bc9;fill-opacity:1;fill-rule:nonzero;stroke:none;stroke-width:0.1"
         id="path4633"
         inkscape:connector-curvature="0" /><path
         d="m 252.343,597.189 -1.894,2.555 7.669,5.685 1.895,-2.557 z m -12.781,-9.473 -1.895,2.556 7.669,5.683 1.894,-2.555 z m -12.783,-9.473 -1.894,2.556 7.669,5.684 1.894,-2.556 z m -12.782,-9.472 -1.894,2.555 7.668,5.684 1.895,-2.556 z m -12.782,-9.474 -1.895,2.557 7.669,5.683 1.895,-2.556 z m -12.782,-9.473 -1.895,2.557 7.669,5.684 1.896,-2.557 z m -12.783,-9.472 -1.894,2.556 7.67,5.684 1.894,-2.557 z m -9.043,-6.702 -1.894,2.556 3.931,2.913 1.894,-2.556 -3.931,-2.913"
         style="fill:#587bc9;fill-opacity:1;fill-rule:nonzero;stroke:none;stroke-width:0.1"
         id="path4635"
         inkscape:connector-curvature="0" /><path
         d="M 144.302,440.065 91.2258,464.046 V 527.88 L 144.302,503.899 V 440.065"
         style="fill:#d7e8f4;fill-opacity:1;fill-rule:nonzero;stroke:none;stroke-width:0.1"
         id="path4637"
         inkscape:connector-curvature="0" /><path
         d="m 144.302,440.065 53.076,23.981 v 63.834 l -53.076,-23.981 v -63.834"
         style="fill:#c6dae5;fill-opacity:1;fill-rule:nonzero;stroke:none;stroke-width:0.1"
         id="path4639"
         inkscape:connector-curvature="0" /><path
         d="M 91.2258,527.88 144.302,503.899 197.378,527.88 144.302,549.654 91.2258,527.88"
         style="fill:#e4f0f4;fill-opacity:1;fill-rule:nonzero;stroke:none;stroke-width:0.1"
         id="path4641"
         inkscape:connector-curvature="0" /><path
         d="m 762.46,633.073 -1.175,2.958 8.871,3.524 1.175,-2.957 z m -14.786,-5.874 -1.174,2.957 8.871,3.525 1.174,-2.957 z m -14.785,-5.875 -1.175,2.957 8.871,3.525 1.175,-2.957 z m -14.785,-5.874 -1.175,2.957 8.871,3.525 1.175,-2.957 z m -14.786,-5.874 -1.174,2.957 8.871,3.525 1.174,-2.957 z m -14.785,-5.875 -1.175,2.957 8.871,3.525 1.175,-2.957 z m -14.785,-5.874 -1.175,2.957 8.871,3.525 1.175,-2.957 z m -14.786,-5.875 -1.175,2.957 8.872,3.526 1.174,-2.957 z m -14.785,-5.874 -1.175,2.957 8.871,3.525 1.175,-2.957 z m -14.785,-5.874 -1.175,2.957 8.871,3.525 1.175,-2.957 z m -14.786,-5.875 -1.174,2.957 8.871,3.525 1.175,-2.957 z m -14.785,-5.874 -1.175,2.957 8.872,3.525 1.174,-2.957 z m -14.785,-5.875 -1.175,2.957 8.871,3.526 1.175,-2.957 z m -14.786,-5.874 -1.175,2.957 8.872,3.525 1.174,-2.957 z m -14.785,-5.874 -1.175,2.957 8.871,3.525 1.175,-2.957 z m -14.785,-5.875 -1.175,2.957 8.871,3.525 1.175,-2.956 z m -14.785,-5.874 -1.175,2.957 8.871,3.525 1.175,-2.957 z m -14.786,-5.875 -1.174,2.958 8.871,3.525 1.174,-2.957 z m -14.785,-5.874 -1.175,2.957 8.872,3.525 1.174,-2.957 z m -14.786,-5.874 -1.174,2.957 8.871,3.525 1.175,-2.957 z m -6.184,-2.457 -1.173,2.957 0.269,0.108 1.174,-2.958 -0.27,-0.107"
         style="fill:#587bc9;fill-opacity:1;fill-rule:nonzero;stroke:none;stroke-width:0.1"
         id="path4643"
         inkscape:connector-curvature="0" /><path
         d="m 528.573,431.459 -107.61,48.622 v 129.423 l 107.61,-48.622 V 431.459"
         style="fill:#d7e8f4;fill-opacity:1;fill-rule:nonzero;stroke:none;stroke-width:0.1"
         id="path4645"
         inkscape:connector-curvature="0" /><path
         d="m 528.573,431.459 107.61,48.622 V 609.504 L 528.573,560.882 V 431.459"
         style="fill:#c6dae5;fill-opacity:1;fill-rule:nonzero;stroke:none;stroke-width:0.1"
         id="path4647"
         inkscape:connector-curvature="0" /><path
         d="m 420.963,609.504 107.61,-48.622 107.61,48.622 -107.61,44.146 -107.61,-44.146"
         style="fill:#e4f0f4;fill-opacity:1;fill-rule:nonzero;stroke:none;stroke-width:0.1"
         id="path4649"
         inkscape:connector-curvature="0" /><path
         d="m 590.439,515.128 -8.711,3.902 1.3,2.904 8.712,-3.902 z m 14.521,-6.501 -8.712,3.901 1.301,2.904 8.712,-3.901 z m 14.52,-6.502 -8.711,3.902 1.299,2.903 8.713,-3.9 z m 14.521,-6.502 -8.712,3.902 1.301,2.904 8.712,-3.901 z m 14.52,-6.502 -8.711,3.902 1.299,2.904 8.713,-3.901 z m 14.521,-6.501 -8.712,3.901 1.3,2.904 8.713,-3.9 z m 14.521,-6.502 -8.713,3.902 1.3,2.903 8.712,-3.9 z m 14.52,-6.502 -8.712,3.902 1.3,2.904 8.712,-3.901 z m 14.521,-6.501 -8.713,3.901 1.3,2.904 8.712,-3.901 -1.299,-2.904"
         style="fill:#587bc9;fill-opacity:1;fill-rule:nonzero;stroke:none;stroke-width:0.1"
         id="path4651"
         inkscape:connector-curvature="0" /><path
         d="m 467.624,513.953 -1.73,2.67 8.008,5.194 1.732,-2.67 z m -13.349,-8.656 -1.73,2.67 8.009,5.193 1.731,-2.67 z m -13.347,-8.656 -1.732,2.669 8.009,5.194 1.732,-2.67 z m -13.349,-8.656 -1.731,2.669 8.008,5.194 1.732,-2.67 z m -13.349,-8.657 -1.731,2.669 8.009,5.195 1.731,-2.67 z m -13.348,-8.657 -1.732,2.67 8.009,5.194 1.732,-2.67 z m -13.349,-8.656 -1.731,2.67 8.01,5.194 1.73,-2.67 -8.009,-5.194"
         style="fill:#587bc9;fill-opacity:1;fill-rule:nonzero;stroke:none;stroke-width:0.1"
         id="path4653"
         inkscape:connector-curvature="0" /><path
         d="m 350.737,325.433 -73.593,33.252 v 88.511 l 73.593,-33.252 v -88.511"
         style="fill:#d7e8f4;fill-opacity:1;fill-rule:nonzero;stroke:none;stroke-width:0.1"
         id="path4655"
         inkscape:connector-curvature="0" /><path
         d="m 350.737,325.433 73.593,33.252 v 88.511 l -73.593,-33.252 v -88.511"
         style="fill:#c6dae5;fill-opacity:1;fill-rule:nonzero;stroke:none;stroke-width:0.1"
         id="path4657"
         inkscape:connector-curvature="0" /><path
         d="m 277.144,447.196 73.593,-33.252 73.593,33.252 -73.593,30.19 -73.593,-30.19"
         style="fill:#e4f0f4;fill-opacity:1;fill-rule:nonzero;stroke:none;stroke-width:0.1"
         id="path4659"
         inkscape:connector-curvature="0" /><path
         d="m 747.731,402.037 -73.593,33.252 V 523.8 l 73.593,-33.252 v -88.511"
         style="fill:#d7e8f4;fill-opacity:1;fill-rule:nonzero;stroke:none;stroke-width:0.1"
         id="path4661"
         inkscape:connector-curvature="0" /><path
         d="m 747.731,402.037 73.594,33.252 V 523.8 l -73.594,-33.252 v -88.511"
         style="fill:#c6dae5;fill-opacity:1;fill-rule:nonzero;stroke:none;stroke-width:0.1"
         id="path4663"
         inkscape:connector-curvature="0" /><path
         d="m 674.138,523.8 73.593,-33.252 73.594,33.252 -73.594,30.19 -73.593,-30.19"
         style="fill:#e4f0f4;fill-opacity:1;fill-rule:nonzero;stroke:none;stroke-width:0.1"
         id="path4665"
         inkscape:connector-curvature="0" /><path
         d="m 813.231,267.234 c -2.175,-2.209 -5.176,-4.12 -8.254,-3.729 -1.228,0.156 -2.449,0.372 -3.657,0.647 -0.95,0.215 -1.924,0.483 -2.68,1.11 -0.757,0.627 -1.242,1.705 -0.92,2.656 0.455,1.343 2.085,1.703 3.275,2.425 1.488,0.903 2.398,2.525 3.567,3.837 2.664,2.993 6.261,3.274 9.66,4.869 0.156,0.074 1.995,-2.049 2.164,-2.239 1.231,-1.382 1.343,-1.684 0.646,-3.433 -0.86,-2.157 -2.115,-4.43 -3.801,-6.143"
         style="fill:#f4c7b3;fill-opacity:1;fill-rule:nonzero;stroke:none;stroke-width:0.1"
         id="path4667"
         inkscape:connector-curvature="0" /><path
         d="m 836.536,368.77 29.1,-44.322 -4.373,-24.692 -45.069,-31.221 -8.481,7.414 30.131,38.089 -1.169,24.071 -0.139,30.661"
         style="fill:#3b455a;fill-opacity:1;fill-rule:nonzero;stroke:none;stroke-width:0.1"
         id="path4669"
         inkscape:connector-curvature="0" /></g></g></svg>